<svg version="1.1" id="Layer_1" xmlns="http://www.w3.org/2000/svg" xmlns:xlink="http://www.w3.org/1999/xlink" x="0px" y="0px"
	 width="100%" viewBox="0 0 512 512" enable-background="new 0 0 512 512" xml:space="preserve">
<path fill="#000000" opacity="1.000000" stroke="none" 
	d="
M1.000002,388.000000 
	C1.000000,346.312439 1.000000,304.624878 1.362390,262.561890 
	C3.661784,267.202606 4.901979,272.645233 7.663464,277.156677 
	C16.777866,292.046753 30.201132,300.142120 47.727993,302.326172 
	C64.966187,304.474274 78.687225,298.946014 89.648323,285.921844 
	C95.077324,279.470978 94.932098,279.347198 102.735611,282.425781 
	C103.199814,282.608887 103.640610,282.850861 104.103218,283.038544 
	C121.811790,290.223053 139.490601,297.482697 157.254852,304.526855 
	C161.306046,306.133301 165.653107,306.993591 170.892700,308.491364 
	C166.269852,310.634064 162.563339,312.081146 159.133881,314.018616 
	C155.780212,315.913300 151.215378,316.445648 149.449692,321.546509 
	C151.012802,321.546509 152.030472,321.794434 152.865112,321.508362 
	C161.787338,318.450500 170.830887,315.671844 179.534805,312.075226 
	C186.651627,309.134460 187.565125,306.078186 184.407867,299.043762 
	C182.234070,294.200409 179.399002,289.656769 177.147690,284.844391 
	C175.132782,280.537262 171.769836,278.732666 167.097839,280.240875 
	C162.457199,281.738983 163.932007,285.510376 164.469131,288.617432 
	C164.916061,291.202759 166.027878,293.673157 167.042435,296.802917 
	C165.377335,296.433533 164.709595,296.376587 164.113174,296.139923 
	C143.407700,287.924103 122.716026,279.673462 102.000595,271.482880 
	C99.329102,270.426575 99.605904,268.710846 99.847183,266.304230 
	C100.474579,260.046570 101.173889,253.689804 100.674690,247.466431 
	C100.387665,243.888321 100.993698,242.546616 104.203186,241.282425 
	C124.776321,233.178802 145.268295,224.869217 165.808731,216.682007 
	C166.566345,216.380035 167.549393,216.643585 168.841797,216.643585 
	C166.959793,220.992493 164.995193,224.841660 163.621780,228.891312 
	C162.111618,233.344162 164.680054,236.309113 168.913910,234.595383 
	C172.182266,233.272476 175.750473,230.704865 177.369583,227.709244 
	C180.665085,221.612015 182.415833,214.699005 185.430099,208.423309 
	C187.181351,204.777237 186.056427,202.894485 183.230759,201.042648 
	C175.271240,195.826263 166.389038,193.169800 157.054001,192.229767 
	C154.576492,191.980286 151.923492,193.473206 149.351074,194.166107 
	C150.998886,196.148087 152.308350,198.647278 154.370316,199.996170 
	C157.848434,202.271454 161.803528,203.817596 166.573990,206.171753 
	C143.369690,215.441757 121.346458,224.310043 99.216225,232.902725 
	C97.919334,233.406281 94.921951,232.201202 94.128647,230.917923 
	C86.124268,217.969849 73.501907,212.607635 59.458141,211.235336 
	C33.453533,208.694275 8.865432,223.923401 2.986355,251.035309 
	C2.751951,252.116287 1.681116,253.015884 1.000001,254.000000 
	C1.000000,211.312439 1.000000,168.624878 1.364436,125.563263 
	C2.157063,126.199799 2.769937,127.172409 2.986596,128.226471 
	C9.387519,159.367050 35.331322,171.665787 62.435410,165.170517 
	C74.291840,162.329193 85.266594,156.403687 92.303215,145.881683 
	C96.091469,140.217010 99.334015,133.635742 100.669472,127.032547 
	C102.097305,119.972588 100.991302,112.400177 100.991302,104.179169 
	C122.899742,95.443886 146.030624,86.221199 169.161499,76.998512 
	C169.472046,77.438339 169.782593,77.878174 170.093124,78.318001 
	C169.295853,80.088104 168.479156,81.849785 167.705887,83.630310 
	C166.580490,86.221550 165.219940,88.749084 164.438568,91.442696 
	C163.119705,95.989288 165.029602,98.277443 169.442657,96.643356 
	C172.516678,95.505096 175.716034,92.791672 177.289780,89.921310 
	C180.385513,84.274994 182.217758,77.951912 184.898941,72.057198 
	C186.978516,67.485153 184.945694,65.080582 181.021088,63.646683 
	C174.952133,61.429325 168.892685,59.023827 162.627197,57.566555 
	C158.786758,56.673328 154.569229,57.401413 149.214645,57.401413 
	C153.978134,65.484291 162.599091,65.787148 168.416519,70.346672 
	C167.636658,70.927620 167.284393,71.323967 166.844162,71.498787 
	C144.582886,80.338791 122.294312,89.110641 100.071915,98.047112 
	C97.379852,99.129692 96.254158,98.375793 94.967094,96.108940 
	C90.327530,87.937431 83.907669,81.547981 75.121925,77.940590 
	C57.551220,70.726135 40.894535,73.458534 25.334152,83.509689 
	C13.322161,91.268791 4.629004,101.583694 2.884226,116.515038 
	C2.780277,117.404602 1.651757,118.174446 1.000001,119.000000 
	C1.000000,79.676399 1.000000,40.352791 0.999999,1.021891 
	C171.614731,1.014594 342.229462,1.014594 512.922119,1.014594 
	C512.922119,171.572479 512.922119,342.144989 512.922119,512.858765 
	C342.333405,512.858765 171.666718,512.858765 1.000000,512.858765 
	C1.000000,475.251923 1.000000,437.594635 1.357717,399.556458 
	C2.056194,399.522797 2.635823,399.829163 2.703228,400.223114 
	C5.252113,415.120209 14.354028,425.400330 26.638371,432.997101 
	C48.448601,446.484741 78.738106,444.432983 93.569931,418.720581 
	C95.067520,416.124359 96.710609,416.215576 98.899841,417.112335 
	C107.038948,420.446259 115.103516,423.974854 123.321373,427.100922 
	C137.120651,432.350128 150.999405,437.392731 164.886841,442.405579 
	C167.209763,443.244080 169.745361,443.493256 173.359375,444.266541 
	C165.234406,449.574707 156.335022,450.572693 150.301910,457.046539 
	C152.739105,457.674652 155.052460,457.818329 157.009460,457.052002 
	C165.054962,453.901581 173.001205,450.496063 180.965729,447.141083 
	C185.924408,445.052246 187.086426,442.844940 184.982544,437.763306 
	C182.568085,431.931549 179.240601,426.469849 176.946793,420.598511 
	C174.869034,415.280121 170.757828,416.794006 167.347595,417.345886 
	C163.380325,417.987946 163.595551,421.691895 164.243835,424.616547 
	C164.944534,427.777679 166.374100,430.777222 167.684906,434.397278 
	C166.348343,433.944641 165.451843,433.684967 164.588333,433.342163 
	C143.888168,425.124786 123.202263,416.871307 102.480644,408.708435 
	C99.908676,407.695251 99.381966,406.285675 100.163635,403.725952 
	C102.551208,395.907440 102.408340,388.052429 100.200272,380.182037 
	C93.683434,356.953644 66.384407,341.877594 41.977592,346.652435 
	C21.003687,350.755707 9.268492,364.940460 3.057699,384.542511 
	C2.663282,385.787384 1.699117,386.851685 1.000002,388.000000 
M239.376526,147.022522 
	C238.871124,147.353470 238.365707,147.684418 237.204819,148.234344 
	C231.898758,151.764145 226.228714,154.854782 221.349136,158.899155 
	C199.238617,177.225006 204.724213,207.356842 222.833893,223.666229 
	C236.584961,236.050308 253.241989,237.853806 270.575195,232.562088 
	C288.735870,227.017746 301.256927,215.712173 305.098450,196.374756 
	C305.781281,192.937607 307.558258,191.895813 310.992981,191.927124 
	C327.814392,192.080582 344.637970,191.986755 361.460724,192.016541 
	C362.656708,192.018661 363.852173,192.311554 365.587189,192.540359 
	C362.081512,196.378586 358.883392,199.536316 356.146973,203.053299 
	C355.119690,204.373642 355.164978,206.528519 354.721283,208.302917 
	C356.627258,208.276520 358.812622,208.854126 360.392761,208.123276 
	C369.035645,204.125793 375.893250,197.872253 381.226746,190.051849 
	C382.031067,188.872513 382.193909,186.059525 381.378723,185.168472 
	C376.550446,179.891052 371.532288,174.748978 366.195770,169.989975 
	C363.184052,167.304184 356.069458,167.691010 354.736603,170.264893 
	C352.726501,174.146576 355.323639,176.818222 357.857849,179.369034 
	C359.394684,180.915955 360.845032,182.548782 363.114746,184.978546 
	C344.221466,184.978546 326.747894,185.029938 309.276550,184.857285 
	C308.169067,184.846344 306.661377,183.294403 306.083313,182.099655 
	C305.314026,180.509613 305.307678,178.559128 304.916748,176.775955 
	C301.833588,162.713287 294.261169,152.363754 280.602264,146.791794 
	C271.068207,142.902512 261.309174,142.432083 250.804001,143.317764 
	C246.287155,141.927719 243.012024,144.218262 240.021347,147.015564 
	C240.021347,147.015564 240.042313,146.895706 239.376526,147.022522 
M237.481705,421.067047 
	C237.322021,421.375427 237.162323,421.683807 236.348846,422.234222 
	C230.465469,426.429413 223.652618,429.767609 218.858536,434.967133 
	C197.346313,458.298920 208.296143,487.951141 228.975021,501.098907 
	C239.371185,507.708893 250.691025,507.262848 262.816864,507.280762 
	C268.145813,509.603180 271.261963,505.548309 275.377563,502.773102 
	C278.992584,500.862762 282.838501,499.287811 286.183319,496.984985 
	C302.023224,486.079559 309.389801,469.580719 304.919403,450.299255 
	C303.980865,446.251282 305.069763,444.685120 308.572876,443.221436 
	C324.367310,436.622284 340.069214,429.802032 355.816742,423.090240 
	C361.515686,420.661316 367.248901,418.312836 373.904663,415.536255 
	C373.306976,417.649902 373.131531,418.578552 372.786133,419.438995 
	C371.244202,423.280579 369.190125,426.988373 368.210297,430.963684 
	C367.215027,435.001648 369.615662,437.078552 373.213654,435.193390 
	C376.544464,433.448273 380.239838,430.859161 381.837189,427.670990 
	C385.008087,421.342438 386.989075,414.389862 389.082214,407.578491 
	C389.404236,406.530548 388.006683,404.008698 386.894653,403.617432 
	C379.108887,400.878265 371.258270,398.255035 363.277649,396.172363 
	C360.166077,395.360321 356.665344,396.039612 353.341858,396.039612 
	C353.210541,396.719910 353.079193,397.400238 352.947876,398.080536 
	C357.897400,403.823792 365.781250,404.671997 371.990784,408.279358 
	C371.831177,408.606262 371.797119,408.834320 371.685486,408.882446 
	C348.962860,418.669708 326.251190,428.483337 303.452179,438.089600 
	C302.445801,438.513611 300.273834,437.402405 299.270996,436.387573 
	C295.220398,432.288666 291.972809,427.184540 287.408203,423.847595 
	C276.624664,415.964325 264.178192,414.697876 250.776413,416.297821 
	C245.312042,414.644714 241.850967,418.489746 237.996597,420.993896 
	C237.996597,420.993896 238.000565,420.897003 237.481705,421.067047 
M251.761932,280.254120 
	C249.940796,279.926025 247.852615,278.876129 246.357513,279.429260 
	C243.739639,280.397827 241.485748,282.350281 238.572220,284.388519 
	C228.573929,288.241791 220.223083,294.437592 214.030396,303.098877 
	C199.693542,323.150848 208.890793,351.182098 226.507553,363.096741 
	C240.834991,372.786713 256.725403,373.943024 273.022186,368.117401 
	C290.011871,362.044098 301.469177,350.837311 305.224457,332.736450 
	C305.947632,329.250580 307.451324,327.859436 311.237701,327.905426 
	C328.330170,328.113098 345.426605,327.986023 362.521545,328.015961 
	C363.695343,328.018005 364.868622,328.318085 366.555359,328.550171 
	C362.700989,332.774231 359.200348,336.319855 356.098663,340.185577 
	C355.158356,341.357513 355.321228,343.414612 354.978790,345.066254 
	C356.536652,344.913727 358.509583,345.318512 359.584686,344.517761 
	C366.339111,339.487183 372.879639,334.170319 379.519897,328.985199 
	C383.353210,325.991882 382.880310,322.611420 379.922211,319.620483 
	C375.254913,314.901306 370.646393,309.906677 365.172546,306.306488 
	C362.891144,304.806030 357.609650,305.425507 355.204620,307.168182 
	C352.150330,309.381287 355.122681,312.549347 357.226624,314.638794 
	C359.298462,316.696350 361.680054,318.441986 363.925751,320.324463 
	C363.580566,320.805145 363.235382,321.285828 362.890198,321.766510 
	C361.303680,321.846008 359.717224,321.992493 358.130615,321.994507 
	C343.976990,322.012482 329.823364,322.005005 315.669739,322.004944 
	C306.668213,322.004913 306.805206,321.975677 304.928894,313.159790 
	C299.402863,287.195740 275.704437,276.424011 251.761932,280.254120 
M292.483490,18.996365 
	C283.033325,10.461269 271.671417,6.197804 259.236572,5.094371 
	C242.310211,3.592376 228.594986,10.295548 218.213776,23.431515 
	C205.568726,39.432041 202.117767,58.241486 215.255798,76.799744 
	C222.112076,86.484619 231.331879,92.972809 242.658279,96.534348 
	C262.411438,102.745644 283.469208,98.494041 295.541504,80.922325 
	C298.428528,76.720116 301.143188,76.427376 305.417511,78.219955 
	C328.110413,87.737038 349.362671,100.708618 374.256378,106.316803 
	C366.645203,110.588570 358.164490,111.574272 352.629822,118.346375 
	C355.467957,118.800064 358.359009,119.219727 360.854980,118.414612 
	C368.428650,115.971619 375.980743,113.361519 383.291107,110.232147 
	C389.970398,107.372902 391.013641,103.779205 387.989532,97.050835 
	C385.534637,91.588943 382.661316,86.297272 380.503998,80.724754 
	C378.532410,75.631935 375.033844,77.434120 371.846680,78.311745 
	C368.639984,79.194748 366.555420,81.227577 367.838715,85.001381 
	C368.920593,88.182755 370.057953,91.345261 371.187897,94.564987 
	C370.546051,94.687767 370.353027,94.792587 370.227173,94.739166 
	C348.961273,85.713264 327.681793,76.718361 306.495819,67.508270 
	C305.486694,67.069565 304.712158,64.661827 304.852509,63.274685 
	C305.285156,58.998329 306.980591,54.740555 306.806305,50.532692 
	C306.307343,38.487865 301.872833,27.935955 292.483490,18.996365 
M495.486389,359.000488 
	C506.587433,347.763336 510.994476,334.121948 509.990631,318.548492 
	C509.308807,307.970612 505.377380,298.477844 497.684662,291.473663 
	C485.456970,280.340424 470.581390,276.779022 454.212524,279.136475 
	C434.607056,281.960052 422.625214,293.620178 416.654602,311.835236 
	C411.133972,328.677429 413.577148,344.669006 425.021393,358.272034 
	C435.185669,370.353668 459.668610,376.028259 474.346710,370.212738 
	C481.510986,367.374298 488.112457,363.115265 495.486389,359.000488 
M427.195801,157.685547 
	C419.396790,165.838989 415.599945,175.825867 414.316864,186.800751 
	C412.531372,202.073654 418.567261,221.109665 435.305603,229.162659 
	C445.186798,233.916611 455.615448,235.162643 466.289001,233.906174 
	C484.169922,231.801270 497.901825,223.508255 505.748932,206.593140 
	C514.077637,188.639923 510.796722,167.517105 496.965118,154.563156 
	C489.288300,147.373444 479.753876,144.146484 469.366241,143.270172 
	C453.472321,141.929367 438.833801,144.320206 427.195801,157.685547 
z"/>
<path fill="#262727" opacity="1.000000" stroke="none" 
	d="
M1.000001,254.444153 
	C1.681116,253.015884 2.751951,252.116287 2.986355,251.035309 
	C8.865432,223.923401 33.453533,208.694275 59.458141,211.235336 
	C73.501907,212.607635 86.124268,217.969849 94.128647,230.917923 
	C94.921951,232.201202 97.919334,233.406281 99.216225,232.902725 
	C121.346458,224.310043 143.369690,215.441757 166.573990,206.171753 
	C161.803528,203.817596 157.848434,202.271454 154.370316,199.996170 
	C152.308350,198.647278 150.998886,196.148087 149.351074,194.166107 
	C151.923492,193.473206 154.576492,191.980286 157.054001,192.229767 
	C166.389038,193.169800 175.271240,195.826263 183.230759,201.042648 
	C186.056427,202.894485 187.181351,204.777237 185.430099,208.423309 
	C182.415833,214.699005 180.665085,221.612015 177.369583,227.709244 
	C175.750473,230.704865 172.182266,233.272476 168.913910,234.595383 
	C164.680054,236.309113 162.111618,233.344162 163.621780,228.891312 
	C164.995193,224.841660 166.959793,220.992493 168.841797,216.643585 
	C167.549393,216.643585 166.566345,216.380035 165.808731,216.682007 
	C145.268295,224.869217 124.776321,233.178802 104.203186,241.282425 
	C100.993698,242.546616 100.387665,243.888321 100.674690,247.466431 
	C101.173889,253.689804 100.474579,260.046570 99.847183,266.304230 
	C99.605904,268.710846 99.329102,270.426575 102.000595,271.482880 
	C122.716026,279.673462 143.407700,287.924103 164.113174,296.139923 
	C164.709595,296.376587 165.377335,296.433533 167.042435,296.802917 
	C166.027878,293.673157 164.916061,291.202759 164.469131,288.617432 
	C163.932007,285.510376 162.457199,281.738983 167.097839,280.240875 
	C171.769836,278.732666 175.132782,280.537262 177.147690,284.844391 
	C179.399002,289.656769 182.234070,294.200409 184.407867,299.043762 
	C187.565125,306.078186 186.651627,309.134460 179.534805,312.075226 
	C170.830887,315.671844 161.787338,318.450500 152.865112,321.508362 
	C152.030472,321.794434 151.012802,321.546509 149.449692,321.546509 
	C151.215378,316.445648 155.780212,315.913300 159.133881,314.018616 
	C162.563339,312.081146 166.269852,310.634064 170.892700,308.491364 
	C165.653107,306.993591 161.306046,306.133301 157.254852,304.526855 
	C139.490601,297.482697 121.811790,290.223053 104.103218,283.038544 
	C103.640610,282.850861 103.199814,282.608887 102.735611,282.425781 
	C94.932098,279.347198 95.077324,279.470978 89.648323,285.921844 
	C78.687225,298.946014 64.966187,304.474274 47.727993,302.326172 
	C30.201132,300.142120 16.777866,292.046753 7.663464,277.156677 
	C4.901979,272.645233 3.661784,267.202606 1.362390,262.093262 
	C1.000000,259.629456 1.000000,257.258881 1.000001,254.444153 
M18.101561,262.638763 
	C18.411736,263.784393 18.721910,264.930023 19.008650,266.858307 
	C20.645527,270.535645 22.282404,274.212952 24.049381,278.555359 
	C24.735332,279.397858 25.421284,280.240387 25.999823,281.795166 
	C28.363205,284.292664 30.726589,286.790131 33.480461,289.806000 
	C35.694656,290.900208 37.908855,291.994415 40.236145,293.807953 
	C45.148979,296.729736 50.255440,296.879272 55.931973,296.228821 
	C71.541130,294.440186 82.358864,286.008667 86.405045,271.276062 
	C86.758377,269.989532 86.459389,268.512604 86.398544,267.127014 
	C86.347542,265.965485 85.689369,264.488892 86.180580,263.700348 
	C89.540718,258.306305 88.438118,253.096832 85.957565,247.165863 
	C85.625854,246.085876 85.294136,245.005875 84.996353,243.183395 
	C83.315445,240.074097 81.634544,236.964798 79.635841,233.311279 
	C78.388161,232.179886 77.140480,231.048492 75.964325,229.219116 
	C71.070206,225.910614 66.576004,221.197174 61.177528,219.660446 
	C54.877666,217.867126 47.552193,217.617935 41.085213,218.856949 
	C21.764513,222.558609 14.461621,245.131104 18.101561,262.638763 
z"/>
<path fill="#262727" opacity="1.000000" stroke="none" 
	d="
M1.000002,388.458069 
	C1.699117,386.851685 2.663282,385.787384 3.057699,384.542511 
	C9.268492,364.940460 21.003687,350.755707 41.977592,346.652435 
	C66.384407,341.877594 93.683434,356.953644 100.200272,380.182037 
	C102.408340,388.052429 102.551208,395.907440 100.163635,403.725952 
	C99.381966,406.285675 99.908676,407.695251 102.480644,408.708435 
	C123.202263,416.871307 143.888168,425.124786 164.588333,433.342163 
	C165.451843,433.684967 166.348343,433.944641 167.684906,434.397278 
	C166.374100,430.777222 164.944534,427.777679 164.243835,424.616547 
	C163.595551,421.691895 163.380325,417.987946 167.347595,417.345886 
	C170.757828,416.794006 174.869034,415.280121 176.946793,420.598511 
	C179.240601,426.469849 182.568085,431.931549 184.982544,437.763306 
	C187.086426,442.844940 185.924408,445.052246 180.965729,447.141083 
	C173.001205,450.496063 165.054962,453.901581 157.009460,457.052002 
	C155.052460,457.818329 152.739105,457.674652 150.301910,457.046539 
	C156.335022,450.572693 165.234406,449.574707 173.359375,444.266541 
	C169.745361,443.493256 167.209763,443.244080 164.886841,442.405579 
	C150.999405,437.392731 137.120651,432.350128 123.321373,427.100922 
	C115.103516,423.974854 107.038948,420.446259 98.899841,417.112335 
	C96.710609,416.215576 95.067520,416.124359 93.569931,418.720581 
	C78.738106,444.432983 48.448601,446.484741 26.638371,432.997101 
	C14.354028,425.400330 5.252113,415.120209 2.703228,400.223114 
	C2.635823,399.829163 2.056194,399.522797 1.357717,399.087799 
	C1.000000,395.638702 1.000000,392.277435 1.000002,388.458069 
M45.054974,356.218414 
	C30.515497,358.487579 22.033413,367.303040 18.659294,381.216675 
	C17.920891,384.261597 19.451012,387.952057 18.438446,390.815521 
	C16.220570,397.087524 18.077412,402.837158 20.398535,408.098633 
	C22.613520,413.119476 26.669926,417.328033 30.205406,422.435852 
	C31.083984,423.275330 31.962564,424.114777 33.152863,425.597107 
	C33.662823,426.018524 34.129292,426.511688 34.689022,426.851013 
	C51.545551,437.068970 72.692017,429.398956 81.744125,415.971466 
	C86.266708,409.262848 90.616730,401.651154 86.098961,392.806244 
	C85.882683,392.382782 86.435356,391.604401 86.531258,390.976227 
	C86.766190,389.437164 87.368835,387.802032 87.072975,386.359528 
	C85.453415,378.463104 82.361176,371.187897 76.236870,365.723724 
	C74.438820,364.119507 70.670044,364.220734 69.558182,362.443298 
	C65.930489,356.644043 60.643814,356.745056 54.280437,356.732910 
	C51.454205,356.520386 48.627968,356.307861 45.054974,356.218414 
z"/>
<path fill="#262828" opacity="1.000000" stroke="none" 
	d="
M1.000001,119.428467 
	C1.651757,118.174446 2.780277,117.404602 2.884226,116.515038 
	C4.629004,101.583694 13.322161,91.268791 25.334152,83.509689 
	C40.894535,73.458534 57.551220,70.726135 75.121925,77.940590 
	C83.907669,81.547981 90.327530,87.937431 94.967094,96.108940 
	C96.254158,98.375793 97.379852,99.129692 100.071915,98.047112 
	C122.294312,89.110641 144.582886,80.338791 166.844162,71.498787 
	C167.284393,71.323967 167.636658,70.927620 168.416519,70.346672 
	C162.599091,65.787148 153.978134,65.484291 149.214645,57.401413 
	C154.569229,57.401413 158.786758,56.673328 162.627197,57.566555 
	C168.892685,59.023827 174.952133,61.429325 181.021088,63.646683 
	C184.945694,65.080582 186.978516,67.485153 184.898941,72.057198 
	C182.217758,77.951912 180.385513,84.274994 177.289780,89.921310 
	C175.716034,92.791672 172.516678,95.505096 169.442657,96.643356 
	C165.029602,98.277443 163.119705,95.989288 164.438568,91.442696 
	C165.219940,88.749084 166.580490,86.221550 167.705887,83.630310 
	C168.479156,81.849785 169.295853,80.088104 170.093124,78.318001 
	C169.782593,77.878174 169.472046,77.438339 169.161499,76.998512 
	C146.030624,86.221199 122.899742,95.443886 100.991302,104.179169 
	C100.991302,112.400177 102.097305,119.972588 100.669472,127.032547 
	C99.334015,133.635742 96.091469,140.217010 92.303215,145.881683 
	C85.266594,156.403687 74.291840,162.329193 62.435410,165.170517 
	C35.331322,171.665787 9.387519,159.367050 2.986596,128.226471 
	C2.769937,127.172409 2.157063,126.199799 1.364436,125.094604 
	C1.000000,123.285645 1.000000,121.571281 1.000001,119.428467 
M32.381550,151.711288 
	C33.956371,152.835312 35.531193,153.959351 37.245003,155.773972 
	C47.435677,161.689896 58.229668,160.062378 68.105835,156.220123 
	C79.829117,151.659256 85.489227,141.331390 87.536766,129.122177 
	C87.651962,128.435257 87.145905,127.644142 87.043320,126.176376 
	C87.350967,124.758728 87.658615,123.341080 87.993332,121.062302 
	C86.982704,116.987846 85.972084,112.913399 84.956940,108.154968 
	C84.625633,107.078117 84.294334,106.001259 83.974480,104.192780 
	C81.189941,97.108002 77.170776,91.081917 69.466049,87.348915 
	C67.606888,86.538834 65.747726,85.728752 63.692135,84.205841 
	C45.585670,77.374313 25.253029,83.408188 19.138371,104.571190 
	C18.325184,107.385643 18.746649,110.538971 18.089094,113.419579 
	C16.075453,122.240944 17.705820,130.391037 22.329954,138.721161 
	C22.901373,139.861649 23.472792,141.002121 24.123419,142.828903 
	C26.765953,145.605820 29.408487,148.382751 32.381550,151.711288 
z"/>
<path fill="#272726" opacity="1.000000" stroke="none" 
	d="
M292.736267,19.245800 
	C301.872833,27.935955 306.307343,38.487865 306.806305,50.532692 
	C306.980591,54.740555 305.285156,58.998329 304.852509,63.274685 
	C304.712158,64.661827 305.486694,67.069565 306.495819,67.508270 
	C327.681793,76.718361 348.961273,85.713264 370.227173,94.739166 
	C370.353027,94.792587 370.546051,94.687767 371.187897,94.564987 
	C370.057953,91.345261 368.920593,88.182755 367.838715,85.001381 
	C366.555420,81.227577 368.639984,79.194748 371.846680,78.311745 
	C375.033844,77.434120 378.532410,75.631935 380.503998,80.724754 
	C382.661316,86.297272 385.534637,91.588943 387.989532,97.050835 
	C391.013641,103.779205 389.970398,107.372902 383.291107,110.232147 
	C375.980743,113.361519 368.428650,115.971619 360.854980,118.414612 
	C358.359009,119.219727 355.467957,118.800064 352.629822,118.346375 
	C358.164490,111.574272 366.645203,110.588570 374.256378,106.316803 
	C349.362671,100.708618 328.110413,87.737038 305.417511,78.219955 
	C301.143188,76.427376 298.428528,76.720116 295.541504,80.922325 
	C283.469208,98.494041 262.411438,102.745644 242.658279,96.534348 
	C231.331879,92.972809 222.112076,86.484619 215.255798,76.799744 
	C202.117767,58.241486 205.568726,39.432041 218.213776,23.431515 
	C228.594986,10.295548 242.310211,3.592376 259.236572,5.094371 
	C271.671417,6.197804 283.033325,10.461269 292.736267,19.245800 
M223.019272,56.823971 
	C223.378189,57.911407 223.737091,58.998844 223.977509,60.895622 
	C225.334747,64.645164 226.692001,68.394699 228.295105,72.667847 
	C229.060791,73.748940 229.826462,74.830040 230.390503,76.655960 
	C233.231995,79.070343 236.073471,81.484726 239.253799,84.483055 
	C240.203995,85.013710 241.154175,85.544357 242.151352,86.797035 
	C249.882263,93.204262 259.073669,90.278824 266.975952,88.926720 
	C280.866119,86.550079 288.695251,76.310768 291.844940,62.758652 
	C292.280701,60.883533 290.489838,58.145954 291.321533,56.769207 
	C294.453339,51.584927 292.199860,46.861645 290.759430,41.415539 
	C290.290955,40.305965 289.822510,39.196392 289.510773,37.311913 
	C287.649109,34.443966 285.787445,31.576019 283.602814,28.197189 
	C282.472290,26.814356 281.341766,25.431522 279.991791,23.372879 
	C270.416779,13.653635 258.331909,12.893728 246.157349,15.161439 
	C229.489182,18.266161 217.704346,39.899086 223.019272,56.823971 
z"/>
<path fill="#272726" opacity="1.000000" stroke="none" 
	d="
M251.305466,143.971344 
	C261.309174,142.432083 271.068207,142.902512 280.602264,146.791794 
	C294.261169,152.363754 301.833588,162.713287 304.916748,176.775955 
	C305.307678,178.559128 305.314026,180.509613 306.083313,182.099655 
	C306.661377,183.294403 308.169067,184.846344 309.276550,184.857285 
	C326.747894,185.029938 344.221466,184.978546 363.114746,184.978546 
	C360.845032,182.548782 359.394684,180.915955 357.857849,179.369034 
	C355.323639,176.818222 352.726501,174.146576 354.736603,170.264893 
	C356.069458,167.691010 363.184052,167.304184 366.195770,169.989975 
	C371.532288,174.748978 376.550446,179.891052 381.378723,185.168472 
	C382.193909,186.059525 382.031067,188.872513 381.226746,190.051849 
	C375.893250,197.872253 369.035645,204.125793 360.392761,208.123276 
	C358.812622,208.854126 356.627258,208.276520 354.721283,208.302917 
	C355.164978,206.528519 355.119690,204.373642 356.146973,203.053299 
	C358.883392,199.536316 362.081512,196.378586 365.587189,192.540359 
	C363.852173,192.311554 362.656708,192.018661 361.460724,192.016541 
	C344.637970,191.986755 327.814392,192.080582 310.992981,191.927124 
	C307.558258,191.895813 305.781281,192.937607 305.098450,196.374756 
	C301.256927,215.712173 288.735870,227.017746 270.575195,232.562088 
	C253.241989,237.853806 236.584961,236.050308 222.833893,223.666229 
	C204.724213,207.356842 199.238617,177.225006 221.349136,158.899155 
	C226.228714,154.854782 231.898758,151.764145 237.896835,148.168274 
	C239.073334,147.700043 239.557831,147.297867 240.042313,146.895706 
	C240.042313,146.895706 240.021347,147.015564 240.350006,147.164825 
	C244.220947,146.199844 247.763199,145.085602 251.305466,143.971344 
M233.750412,217.650452 
	C242.735718,227.808960 254.235092,229.552200 266.657562,226.832825 
	C276.846130,224.602463 284.602783,218.364822 288.612518,208.819565 
	C291.993927,200.769989 296.458160,192.250641 290.247589,183.325836 
	C289.948120,182.895477 290.233765,182.071365 290.212097,181.431793 
	C290.132965,179.096451 290.703613,176.472641 289.835663,174.476608 
	C286.097900,165.880829 280.861572,159.321121 271.957947,154.317200 
	C263.802246,149.733627 256.019653,149.921463 248.178360,150.594986 
	C237.740646,151.491516 230.095474,158.046082 225.944870,167.765488 
	C219.687347,182.418579 220.805161,196.853790 228.410721,210.788620 
	C228.978531,211.828934 230.176910,212.525085 231.395432,213.841904 
	C232.157547,214.870972 232.919662,215.900040 233.750412,217.650452 
z"/>
<path fill="#282826" opacity="1.000000" stroke="none" 
	d="
M262.143097,506.908752 
	C250.691025,507.262848 239.371185,507.708893 228.975021,501.098907 
	C208.296143,487.951141 197.346313,458.298920 218.858536,434.967133 
	C223.652618,429.767609 230.465469,426.429413 237.006287,422.074280 
	C237.776001,421.575226 237.888275,421.236115 238.000549,420.897003 
	C238.000565,420.897003 237.996597,420.993896 238.326004,421.166229 
	C242.854248,419.881287 247.053101,418.424042 251.251938,416.966766 
	C264.178192,414.697876 276.624664,415.964325 287.408203,423.847595 
	C291.972809,427.184540 295.220398,432.288666 299.270996,436.387573 
	C300.273834,437.402405 302.445801,438.513611 303.452179,438.089600 
	C326.251190,428.483337 348.962860,418.669708 371.685486,408.882446 
	C371.797119,408.834320 371.831177,408.606262 371.990784,408.279358 
	C365.781250,404.671997 357.897400,403.823792 352.947876,398.080536 
	C353.079193,397.400238 353.210541,396.719910 353.341858,396.039612 
	C356.665344,396.039612 360.166077,395.360321 363.277649,396.172363 
	C371.258270,398.255035 379.108887,400.878265 386.894653,403.617432 
	C388.006683,404.008698 389.404236,406.530548 389.082214,407.578491 
	C386.989075,414.389862 385.008087,421.342438 381.837189,427.670990 
	C380.239838,430.859161 376.544464,433.448273 373.213654,435.193390 
	C369.615662,437.078552 367.215027,435.001648 368.210297,430.963684 
	C369.190125,426.988373 371.244202,423.280579 372.786133,419.438995 
	C373.131531,418.578552 373.306976,417.649902 373.904663,415.536255 
	C367.248901,418.312836 361.515686,420.661316 355.816742,423.090240 
	C340.069214,429.802032 324.367310,436.622284 308.572876,443.221436 
	C305.069763,444.685120 303.980865,446.251282 304.919403,450.299255 
	C309.389801,469.580719 302.023224,486.079559 286.183319,496.984985 
	C282.838501,499.287811 278.992584,500.862762 274.760376,502.878723 
	C270.143158,504.292480 266.143127,505.600616 262.143097,506.908752 
M261.386902,423.046844 
	C258.317413,423.044678 255.247940,423.042511 251.687424,422.480194 
	C242.621155,422.619354 235.309937,426.393982 229.832123,433.497742 
	C222.356339,443.192627 221.011032,454.405914 222.441895,466.147003 
	C222.657471,467.915894 223.625488,469.591492 224.233688,471.314392 
	C225.509354,474.928162 226.777206,478.544647 228.328201,482.726532 
	C228.904083,483.853546 229.479950,484.980560 230.202438,486.757935 
	C232.819962,489.224762 235.437485,491.691559 238.354858,494.663269 
	C239.481369,495.421204 240.607880,496.179138 241.980881,497.647400 
	C246.297211,498.748901 250.613525,499.850433 255.583771,501.240204 
	C257.602814,501.148834 259.621887,501.057465 262.067291,501.590668 
	C277.701294,500.230865 291.124298,486.675415 292.350769,470.853333 
	C292.470978,469.302612 290.986725,467.235962 291.592346,466.181061 
	C294.463287,461.180359 292.267975,456.631439 290.722168,451.363281 
	C290.473022,450.549561 290.223846,449.735840 289.977020,448.183624 
	C288.298462,445.063416 286.619904,441.943207 284.673126,438.354248 
	C283.909973,437.597504 283.146851,436.840790 282.523560,435.340576 
	C277.366791,428.659576 270.569244,424.689392 261.386902,423.046844 
z"/>
<path fill="#282726" opacity="1.000000" stroke="none" 
	d="
M251.996597,280.981628 
	C275.704437,276.424011 299.402863,287.195740 304.928894,313.159790 
	C306.805206,321.975677 306.668213,322.004913 315.669739,322.004944 
	C329.823364,322.005005 343.976990,322.012482 358.130615,321.994507 
	C359.717224,321.992493 361.303680,321.846008 362.890198,321.766510 
	C363.235382,321.285828 363.580566,320.805145 363.925751,320.324463 
	C361.680054,318.441986 359.298462,316.696350 357.226624,314.638794 
	C355.122681,312.549347 352.150330,309.381287 355.204620,307.168182 
	C357.609650,305.425507 362.891144,304.806030 365.172546,306.306488 
	C370.646393,309.906677 375.254913,314.901306 379.922211,319.620483 
	C382.880310,322.611420 383.353210,325.991882 379.519897,328.985199 
	C372.879639,334.170319 366.339111,339.487183 359.584686,344.517761 
	C358.509583,345.318512 356.536652,344.913727 354.978790,345.066254 
	C355.321228,343.414612 355.158356,341.357513 356.098663,340.185577 
	C359.200348,336.319855 362.700989,332.774231 366.555359,328.550171 
	C364.868622,328.318085 363.695343,328.018005 362.521545,328.015961 
	C345.426605,327.986023 328.330170,328.113098 311.237701,327.905426 
	C307.451324,327.859436 305.947632,329.250580 305.224457,332.736450 
	C301.469177,350.837311 290.011871,362.044098 273.022186,368.117401 
	C256.725403,373.943024 240.834991,372.786713 226.507553,363.096741 
	C208.890793,351.182098 199.693542,323.150848 214.030396,303.098877 
	C220.223083,294.437592 228.573929,288.241791 239.223038,284.201111 
	C243.914764,283.003021 247.955673,281.992340 251.996597,280.981628 
M293.047577,324.053802 
	C293.274475,315.613403 292.031158,312.647491 288.282074,312.685669 
	C291.122253,308.057220 283.313751,296.768250 275.601135,294.299561 
	C274.104156,293.185638 272.607178,292.071716 270.565338,290.481049 
	C262.624878,285.814301 253.781937,286.110077 245.526016,287.863068 
	C232.377838,290.654907 221.892502,304.934784 221.002609,319.819855 
	C221.034012,320.898376 221.065414,321.976898 220.974380,323.834869 
	C218.590622,331.704620 224.138977,345.498047 229.697006,345.519684 
	C228.489990,349.007111 230.820450,352.040802 237.561340,355.249329 
	C239.084747,356.199982 240.608139,357.150665 242.339462,358.763611 
	C250.894302,363.803711 260.283112,364.393127 269.501770,362.240265 
	C283.109283,359.062469 291.759552,346.541718 292.986206,329.218475 
	C292.976898,327.787262 292.967621,326.356018 293.047577,324.053802 
z"/>
<path fill="#282627" opacity="1.000000" stroke="none" 
	d="
M495.227539,359.249847 
	C488.112457,363.115265 481.510986,367.374298 474.346710,370.212738 
	C459.668610,376.028259 435.185669,370.353668 425.021393,358.272034 
	C413.577148,344.669006 411.133972,328.677429 416.654602,311.835236 
	C422.625214,293.620178 434.607056,281.960052 454.212524,279.136475 
	C470.581390,276.779022 485.456970,280.340424 497.684662,291.473663 
	C505.377380,298.477844 509.308807,307.970612 509.990631,318.548492 
	C510.994476,334.121948 506.587433,347.763336 495.227539,359.249847 
M432.006226,343.830994 
	C432.611328,345.341919 433.016083,346.975250 433.852844,348.344604 
	C441.389862,360.679413 455.547089,366.891785 470.411438,363.707184 
	C481.377594,361.357727 489.204926,354.763000 493.902557,344.676788 
	C499.076111,333.568695 498.622345,322.203857 494.574829,310.855957 
	C494.407104,310.385742 493.516663,310.173309 492.959595,309.182312 
	C492.371094,307.842743 491.782562,306.503204 491.059326,304.435303 
	C488.739807,301.653259 486.420288,298.871185 483.682709,295.579468 
	C482.423218,294.687195 481.163727,293.794891 479.712097,292.244232 
	C475.507568,290.860260 471.303070,289.476318 466.474152,287.549042 
	C463.060150,287.355225 459.646118,287.161377 455.383179,286.733673 
	C441.621338,287.960754 431.189056,297.334534 428.146271,311.830383 
	C427.228394,316.203156 427.081665,320.875153 427.441284,325.340851 
	C427.815216,329.983551 429.229279,334.542511 430.378601,339.747498 
	C430.949799,340.864258 431.520996,341.981018 432.006226,343.830994 
z"/>
<path fill="#282627" opacity="1.000000" stroke="none" 
	d="
M427.444458,157.439667 
	C438.833801,144.320206 453.472321,141.929367 469.366241,143.270172 
	C479.753876,144.146484 489.288300,147.373444 496.965118,154.563156 
	C510.796722,167.517105 514.077637,188.639923 505.748932,206.593140 
	C497.901825,223.508255 484.169922,231.801270 466.289001,233.906174 
	C455.615448,235.162643 445.186798,233.916611 435.305603,229.162659 
	C418.567261,221.109665 412.531372,202.073654 414.316864,186.800751 
	C415.599945,175.825867 419.396790,165.838989 427.444458,157.439667 
M497.040375,185.099564 
	C496.284424,172.413284 489.103058,163.290985 480.045349,155.464401 
	C477.462006,153.232193 473.883270,151.844086 470.528534,150.866440 
	C456.839905,146.877304 440.267761,148.975906 432.229187,164.168121 
	C429.521820,169.284729 428.033691,175.297729 427.165894,181.077835 
	C425.847961,189.855911 427.548523,198.433990 431.033203,206.474030 
	C432.861328,205.915573 434.224121,205.499268 435.366577,205.150284 
	C434.402405,206.891342 432.469910,209.054855 432.917297,209.811890 
	C434.513306,212.512451 436.917908,214.735168 439.314545,217.648804 
	C440.430542,218.737228 441.546539,219.825668 442.723694,221.653824 
	C446.467407,223.428452 450.211090,225.203064 454.677307,227.295517 
	C456.501617,227.568909 458.325928,227.842300 460.654633,228.733795 
	C474.197357,229.832596 486.795990,223.213791 492.716614,211.141815 
	C495.947723,204.553619 499.259857,197.680176 496.941040,189.078888 
	C496.945709,188.030716 496.950378,186.982559 497.040375,185.099564 
z"/>
<path fill="#F6C93C" opacity="1.000000" stroke="none" 
	d="
M251.879272,280.617859 
	C247.955673,281.992340 243.914764,283.003021 239.476593,283.952087 
	C241.485748,282.350281 243.739639,280.397827 246.357513,279.429260 
	C247.852615,278.876129 249.940796,279.926025 251.879272,280.617859 
z"/>
<path fill="#F6C93C" opacity="1.000000" stroke="none" 
	d="
M262.479980,507.094757 
	C266.143127,505.600616 270.143158,504.292480 274.535614,503.031372 
	C271.261963,505.548309 268.145813,509.603180 262.479980,507.094757 
z"/>
<path fill="#F6C93C" opacity="1.000000" stroke="none" 
	d="
M251.014175,416.632294 
	C247.053101,418.424042 242.854248,419.881287 238.277573,421.164062 
	C241.850967,418.489746 245.312042,414.644714 251.014175,416.632294 
z"/>
<path fill="#F6C93C" opacity="1.000000" stroke="none" 
	d="
M251.054733,143.644562 
	C247.763199,145.085602 244.220947,146.199844 240.289978,147.155060 
	C243.012024,144.218262 246.287155,141.927719 251.054733,143.644562 
z"/>
<path fill="#F6C93C" opacity="1.000000" stroke="none" 
	d="
M239.709412,146.959106 
	C239.557831,147.297867 239.073334,147.700043 238.224579,148.058777 
	C238.365707,147.684418 238.871124,147.353470 239.709412,146.959106 
z"/>
<path fill="#F6C93C" opacity="1.000000" stroke="none" 
	d="
M237.741119,420.982025 
	C237.888275,421.236115 237.776001,421.575226 237.333191,421.953247 
	C237.162323,421.683807 237.322021,421.375427 237.741119,420.982025 
z"/>
<path fill="#4ED7D4" opacity="1.000000" stroke="none" 
	d="
M85.964066,247.851685 
	C88.438118,253.096832 89.540718,258.306305 86.180580,263.700348 
	C85.689369,264.488892 86.347542,265.965485 86.398544,267.127014 
	C86.459389,268.512604 86.758377,269.989532 86.405045,271.276062 
	C82.358864,286.008667 71.541130,294.440186 55.931973,296.228821 
	C50.255440,296.879272 45.148979,296.729736 40.488144,293.307434 
	C46.059902,287.759674 51.379662,282.712494 56.919548,277.472198 
	C57.300831,276.938629 57.461990,276.598175 57.623146,276.257690 
	C57.057804,276.478668 56.492462,276.699677 55.564373,276.961731 
	C47.831078,281.097748 40.460529,285.192688 33.089973,289.287628 
	C30.726589,286.790131 28.363205,284.292664 26.358450,281.296936 
	C30.038385,277.749176 33.359692,274.699646 36.969288,271.389282 
	C37.864117,270.731659 38.470657,270.334869 39.077198,269.938049 
	C38.920540,269.716614 38.763885,269.495178 38.607231,269.273743 
	C37.713860,269.822662 36.820492,270.371582 35.564407,270.961609 
	C31.440893,273.298584 27.680094,275.594452 23.919287,277.890289 
	C22.282404,274.212952 20.645527,270.535645 19.342796,266.343201 
	C23.684534,262.440582 27.692122,259.053040 31.919506,255.472992 
	C32.300106,254.941040 32.460903,254.601608 32.621712,254.262177 
	C32.056824,254.481644 31.491928,254.701111 30.563160,254.961792 
	C26.139004,257.311615 22.078724,259.620239 18.018444,261.928864 
	C14.461621,245.131104 21.764513,222.558609 41.085213,218.856949 
	C47.552193,217.617935 54.877666,217.867126 61.177528,219.660446 
	C66.576004,221.197174 71.070206,225.910614 75.620544,229.713287 
	C70.325836,234.576019 65.374908,238.944580 60.423973,243.313141 
	C60.673737,243.701736 60.923504,244.090317 61.173267,244.478897 
	C67.433395,240.937759 73.693520,237.396637 79.953644,233.855499 
	C81.634544,236.964798 83.315445,240.074097 84.663452,243.675522 
	C81.318855,246.891632 78.307167,249.615616 75.075317,252.532532 
	C74.694466,253.064484 74.533783,253.403488 74.373093,253.742493 
	C74.944176,253.526123 75.515259,253.309753 76.448074,253.052124 
	C79.861229,251.291168 82.912651,249.571426 85.964066,247.851685 
M38.996052,268.805115 
	C39.454662,268.862701 39.913277,268.920288 40.371887,268.977875 
	C40.055950,268.706177 39.740013,268.434509 38.996052,268.805115 
M59.580494,245.833282 
	C59.478180,245.433624 59.375866,245.033966 59.273548,244.634308 
	C59.121002,245.052307 58.968460,245.470306 59.580494,245.833282 
z"/>
<path fill="#000000" opacity="1.000000" stroke="none" 
	d="
M56.699425,277.665283 
	C51.379662,282.712494 46.059902,287.759674 40.431595,292.947754 
	C37.908855,291.994415 35.694656,290.900208 33.285217,289.546814 
	C40.460529,285.192688 47.831078,281.097748 55.755157,277.150269 
	C56.438931,277.420258 56.569176,277.542755 56.699425,277.665283 
z"/>
<path fill="#000000" opacity="1.000000" stroke="none" 
	d="
M79.794739,233.583389 
	C73.693520,237.396637 67.433395,240.937759 61.173267,244.478897 
	C60.923504,244.090317 60.673737,243.701736 60.423973,243.313141 
	C65.374908,238.944580 70.325836,234.576019 75.584793,230.062286 
	C77.140480,231.048492 78.388161,232.179886 79.794739,233.583389 
z"/>
<path fill="#000000" opacity="1.000000" stroke="none" 
	d="
M18.060001,262.283813 
	C22.078724,259.620239 26.139004,257.311615 30.754028,255.150391 
	C31.439083,255.420349 31.569395,255.542923 31.699709,255.665512 
	C27.692122,259.053040 23.684534,262.440582 19.354515,265.951874 
	C18.721910,264.930023 18.411736,263.784393 18.060001,262.283813 
z"/>
<path fill="#000000" opacity="1.000000" stroke="none" 
	d="
M23.984337,278.222839 
	C27.680094,275.594452 31.440893,273.298584 35.751015,271.145935 
	C36.427223,271.409485 36.554115,271.529785 36.681000,271.650116 
	C33.359692,274.699646 30.038385,277.749176 26.412155,280.940796 
	C25.421284,280.240387 24.735332,279.397858 23.984337,278.222839 
z"/>
<path fill="#000000" opacity="1.000000" stroke="none" 
	d="
M75.295479,252.339600 
	C78.307167,249.615616 81.318855,246.891632 84.646484,244.046768 
	C85.294136,245.005875 85.625854,246.085876 85.960815,247.508774 
	C82.912651,249.571426 79.861229,251.291168 76.252563,252.861389 
	C75.562027,252.587769 75.428749,252.463684 75.295479,252.339600 
z"/>
<path fill="#4ED7D4" opacity="1.000000" stroke="none" 
	d="
M55.045975,357.040100 
	C60.643814,356.745056 65.930489,356.644043 69.558182,362.443298 
	C70.670044,364.220734 74.438820,364.119507 76.236870,365.723724 
	C82.361176,371.187897 85.453415,378.463104 87.072975,386.359528 
	C87.368835,387.802032 86.766190,389.437164 86.531258,390.976227 
	C86.435356,391.604401 85.882683,392.382782 86.098961,392.806244 
	C90.616730,401.651154 86.266708,409.262848 81.744125,415.971466 
	C72.692017,429.398956 51.545551,437.068970 34.689022,426.851013 
	C34.129292,426.511688 33.662823,426.018524 33.151756,424.964966 
	C37.000309,421.110352 40.849964,417.887878 44.919426,414.472839 
	C45.300068,413.940826 45.460903,413.601349 45.621735,413.261871 
	C45.056805,413.481384 44.491879,413.700928 43.563995,413.961548 
	C38.772984,416.632996 34.344925,419.263306 29.916866,421.893646 
	C26.669926,417.328033 22.613520,413.119476 20.398535,408.098633 
	C18.077412,402.837158 16.220570,397.087524 18.438446,390.815521 
	C19.451012,387.952057 17.920891,384.261597 18.659294,381.216675 
	C22.033413,367.303040 30.515497,358.487579 45.306244,356.460632 
	C43.214634,359.659729 40.871746,362.616669 38.528862,365.573578 
	C38.788696,365.926605 39.048534,366.279633 39.308369,366.632629 
	C44.554237,363.435120 49.800110,360.237610 55.045975,357.040100 
M38.004097,367.194672 
	C37.545486,367.137115 37.086876,367.079559 36.628258,367.022003 
	C36.944187,367.293701 37.260117,367.565369 38.004097,367.194672 
z"/>
<path fill="#000000" opacity="1.000000" stroke="none" 
	d="
M54.663208,356.886505 
	C49.800110,360.237610 44.554237,363.435120 39.308369,366.632629 
	C39.048534,366.279633 38.788696,365.926605 38.528862,365.573578 
	C40.871746,362.616669 43.214634,359.659729 45.679626,356.399109 
	C48.627968,356.307861 51.454205,356.520386 54.663208,356.886505 
z"/>
<path fill="#000000" opacity="1.000000" stroke="none" 
	d="
M30.061134,422.164734 
	C34.344925,419.263306 38.772984,416.632996 43.754875,414.150208 
	C44.439018,414.420319 44.569328,414.542877 44.699631,414.665405 
	C40.849964,417.887878 37.000309,421.110352 32.995895,424.643524 
	C31.962564,424.114777 31.083984,423.275330 30.061134,422.164734 
z"/>
<path fill="#4ED7D4" opacity="1.000000" stroke="none" 
	d="
M69.931953,87.816696 
	C77.170776,91.081917 81.189941,97.108002 83.617767,104.596909 
	C79.274826,108.446861 75.288612,111.892677 71.085220,115.533997 
	C70.704147,116.066750 70.540245,116.403984 70.376350,116.741226 
	C70.941895,116.520645 71.507439,116.300064 72.432808,116.038712 
	C76.848915,113.611610 80.905190,111.225281 84.961464,108.838943 
	C85.972084,112.913399 86.982704,116.987846 87.663483,121.614197 
	C84.383430,124.869865 81.433228,127.573631 78.483025,130.277390 
	C78.756638,130.657074 79.030251,131.036758 79.303864,131.416428 
	C81.845573,129.911469 84.387291,128.406494 86.929001,126.901527 
	C87.145905,127.644142 87.651962,128.435257 87.536766,129.122177 
	C85.489227,141.331390 79.829117,151.659256 68.105835,156.220123 
	C58.229668,160.062378 47.435677,161.689896 37.479790,155.286835 
	C42.733658,150.144150 47.752735,145.488586 52.771809,140.833023 
	C52.437515,140.340881 52.103222,139.848740 51.768925,139.356613 
	C45.196293,143.290955 38.623657,147.225311 32.051022,151.159668 
	C29.408487,148.382751 26.765953,145.605820 24.433388,142.436310 
	C28.715630,138.629730 32.687904,135.215729 36.660179,131.801727 
	C36.388119,131.408371 36.116062,131.015015 35.844002,130.621658 
	C31.245880,133.130936 26.647760,135.640228 22.049641,138.149506 
	C17.705820,130.391037 16.075453,122.240944 18.089094,113.419579 
	C18.746649,110.538971 18.325184,107.385643 19.138371,104.571190 
	C25.253029,83.408188 45.585670,77.374313 63.487118,84.703873 
	C58.954945,89.246162 54.627789,93.290421 50.080997,97.527237 
	C49.700508,98.059067 49.539654,98.398361 49.378807,98.737656 
	C49.943512,98.518242 50.508221,98.298828 51.433853,98.038467 
	C57.840500,94.603905 63.886227,91.210304 69.931953,87.816696 
M38.208454,129.119064 
	C37.860928,129.441544 37.513401,129.764008 37.165871,130.086487 
	C37.641544,129.975250 38.117218,129.864014 38.208454,129.119064 
M54.224621,138.119370 
	C53.872383,138.447113 53.520145,138.774857 53.167912,139.102615 
	C53.652084,138.988464 54.136257,138.874298 54.224621,138.119370 
M77.580025,132.833221 
	C77.477753,132.433578 77.375481,132.033951 77.273193,131.634308 
	C77.120674,132.052261 76.968147,132.470215 77.580025,132.833221 
z"/>
<path fill="#000000" opacity="1.000000" stroke="none" 
	d="
M32.216286,151.435486 
	C38.623657,147.225311 45.196293,143.290955 51.768925,139.356613 
	C52.103222,139.848740 52.437515,140.340881 52.771809,140.833023 
	C47.752735,145.488586 42.733658,150.144150 37.410297,154.941559 
	C35.531193,153.959351 33.956371,152.835312 32.216286,151.435486 
z"/>
<path fill="#000000" opacity="1.000000" stroke="none" 
	d="
M50.300636,97.334686 
	C54.627789,93.290421 58.954945,89.246162 63.585335,85.060287 
	C65.747726,85.728752 67.606888,86.538834 69.699005,87.582809 
	C63.886227,91.210304 57.840500,94.603905 51.243073,97.849899 
	C50.561123,97.579750 50.430882,97.457214 50.300636,97.334686 
z"/>
<path fill="#000000" opacity="1.000000" stroke="none" 
	d="
M22.189796,138.435333 
	C26.647760,135.640228 31.245880,133.130936 35.844002,130.621658 
	C36.116062,131.015015 36.388119,131.408371 36.660179,131.801727 
	C32.687904,135.215729 28.715630,138.629730 24.393782,142.093170 
	C23.472792,141.002121 22.901373,139.861649 22.189796,138.435333 
z"/>
<path fill="#000000" opacity="1.000000" stroke="none" 
	d="
M71.302383,115.338486 
	C75.288612,111.892677 79.274826,108.446861 83.612045,104.962723 
	C84.294334,106.001259 84.625633,107.078117 84.959198,108.496956 
	C80.905190,111.225281 76.848915,113.611610 72.242462,115.851074 
	C71.562309,115.582298 71.432350,115.460396 71.302383,115.338486 
z"/>
<path fill="#000000" opacity="1.000000" stroke="none" 
	d="
M86.986160,126.538956 
	C84.387291,128.406494 81.845573,129.911469 79.303864,131.416428 
	C79.030251,131.036758 78.756638,130.657074 78.483025,130.277390 
	C81.433228,127.573631 84.383430,124.869865 87.649948,122.044769 
	C87.658615,123.341080 87.350967,124.758728 86.986160,126.538956 
z"/>
<path fill="#F6C93C" opacity="1.000000" stroke="none" 
	d="
M283.925781,28.708073 
	C285.787445,31.576019 287.649109,34.443966 289.210388,37.968872 
	C285.707153,41.532467 282.504333,44.439106 279.089355,47.542435 
	C278.718811,48.074223 278.560455,48.409313 278.402100,48.744404 
	C278.959198,48.522785 279.516327,48.301167 280.435730,48.038879 
	C284.199402,45.990738 287.600739,43.983273 291.002106,41.975803 
	C292.199860,46.861645 294.453339,51.584927 291.321533,56.769207 
	C290.489838,58.145954 292.280701,60.883533 291.844940,62.758652 
	C288.695251,76.310768 280.866119,86.550079 266.975952,88.926720 
	C259.073669,90.278824 249.882263,93.204262 242.436539,86.296814 
	C245.714249,83.083687 248.706772,80.370781 251.916275,77.460899 
	C252.297394,76.926880 252.461533,76.589836 252.625671,76.252792 
	C252.059402,76.475456 251.493134,76.698128 250.566071,76.961380 
	C246.441849,79.301018 242.678406,81.600067 238.914963,83.899109 
	C236.073471,81.484726 233.231995,79.070343 230.731049,76.023788 
	C235.279724,71.817413 239.487854,68.243210 243.915710,64.476929 
	C244.298386,63.948082 244.461349,63.611313 244.624313,63.274544 
	C244.061829,63.493443 243.499344,63.712341 242.573334,63.972141 
	C237.489609,66.723442 232.769424,69.433838 228.049240,72.144241 
	C226.692001,68.394699 225.334747,64.645164 224.347427,60.345657 
	C227.705658,57.082008 230.693970,54.368324 233.932312,51.438339 
	C235.029938,50.723648 235.877533,50.225250 236.725128,49.726852 
	C236.550308,49.430218 236.375488,49.133583 236.200668,48.836948 
	C235.109390,49.531559 234.018127,50.226170 232.567078,50.961227 
	C229.148392,52.701553 226.089478,54.401436 223.030563,56.101311 
	C217.704346,39.899086 229.489182,18.266161 246.157349,15.161439 
	C258.331909,12.893728 270.416779,13.653635 279.931793,24.011673 
	C274.680450,29.212709 269.489136,33.774948 264.077332,38.530327 
	C263.695984,39.063286 263.535126,39.403107 263.374237,39.742931 
	C263.940582,39.521736 264.506958,39.300541 265.433899,39.038826 
	C271.838287,35.568222 277.882019,32.138149 283.925781,28.708073 
z"/>
<path fill="#000000" opacity="1.000000" stroke="none" 
	d="
M264.297791,38.337189 
	C269.489136,33.774948 274.680450,29.212709 280.041504,24.349579 
	C281.341766,25.431522 282.472290,26.814356 283.764282,28.452633 
	C277.882019,32.138149 271.838287,35.568222 265.242371,38.850845 
	C264.559418,38.581322 264.428619,38.459251 264.297791,38.337189 
z"/>
<path fill="#000000" opacity="1.000000" stroke="none" 
	d="
M243.695984,64.669006 
	C239.487854,68.243210 235.279724,71.817413 230.831879,75.651375 
	C229.826462,74.830040 229.060791,73.748940 228.172180,72.406044 
	C232.769424,69.433838 237.489609,66.723442 242.760895,64.158859 
	C243.440002,64.426125 243.567993,64.547569 243.695984,64.669006 
z"/>
<path fill="#000000" opacity="1.000000" stroke="none" 
	d="
M239.084381,84.191086 
	C242.678406,81.600067 246.441849,79.301018 250.757019,77.147919 
	C251.438950,77.415207 251.569138,77.536545 251.699310,77.657883 
	C248.706772,80.370781 245.714249,83.083687 242.413055,85.935806 
	C241.154175,85.544357 240.203995,85.013710 239.084381,84.191086 
z"/>
<path fill="#000000" opacity="1.000000" stroke="none" 
	d="
M279.301514,47.345745 
	C282.504333,44.439106 285.707153,41.532467 289.132019,38.356323 
	C289.822510,39.196392 290.290955,40.305965 290.880768,41.695671 
	C287.600739,43.983273 284.199402,45.990738 280.245117,47.852940 
	C279.561981,47.587032 279.431732,47.466389 279.301514,47.345745 
z"/>
<path fill="#000000" opacity="1.000000" stroke="none" 
	d="
M223.024918,56.462646 
	C226.089478,54.401436 229.148392,52.701553 232.753433,51.147263 
	C233.427139,51.413445 233.554703,51.534042 233.682266,51.654640 
	C230.693970,54.368324 227.705658,57.082008 224.406677,59.940987 
	C223.737091,58.998844 223.378189,57.911407 223.024918,56.462646 
z"/>
<path fill="#F6C93C" opacity="1.000000" stroke="none" 
	d="
M231.082153,213.381226 
	C230.176910,212.525085 228.978531,211.828934 228.410721,210.788620 
	C220.805161,196.853790 219.687347,182.418579 225.944870,167.765488 
	C230.095474,158.046082 237.740646,151.491516 248.178360,150.594986 
	C256.019653,149.921463 263.802246,149.733627 271.957947,154.317200 
	C280.861572,159.321121 286.097900,165.880829 289.835663,174.476608 
	C290.703613,176.472641 290.132965,179.096451 290.212097,181.431793 
	C290.233765,182.071365 289.948120,182.895477 290.247589,183.325836 
	C296.458160,192.250641 291.993927,200.769989 288.612518,208.819565 
	C284.602783,218.364822 276.846130,224.602463 266.657562,226.832825 
	C254.235092,229.552200 242.735718,227.808960 233.924133,217.010315 
	C236.963974,213.800186 239.830109,211.230179 242.911499,208.464157 
	C243.291504,207.934723 243.456253,207.601318 243.620987,207.267883 
	C243.057724,207.487030 242.494476,207.706177 241.567703,207.966309 
	C237.830185,209.798584 234.456161,211.589905 231.082153,213.381226 
z"/>
<path fill="#000000" opacity="1.000000" stroke="none" 
	d="
M231.238800,213.611572 
	C234.456161,211.589905 237.830185,209.798584 241.756775,208.152283 
	C242.438324,208.418243 242.567291,208.539200 242.696259,208.660187 
	C239.830109,211.230179 236.963974,213.800186 233.889801,216.649658 
	C232.919662,215.900040 232.157547,214.870972 231.238800,213.611572 
z"/>
<path fill="#F6C93C" opacity="1.000000" stroke="none" 
	d="
M238.055023,494.158356 
	C235.437485,491.691559 232.819962,489.224762 230.441742,486.304169 
	C234.014786,482.793671 237.348511,479.736969 240.944031,476.475403 
	C242.053314,475.743958 242.900803,475.217377 243.748306,474.690796 
	C243.571259,474.400543 243.394211,474.110291 243.217178,473.820068 
	C242.120438,474.520325 241.023697,475.220581 239.565521,475.961548 
	C235.485489,478.054840 231.766876,480.107422 228.048279,482.160034 
	C226.777206,478.544647 225.509354,474.928162 224.233688,471.314392 
	C223.625488,469.591492 222.657471,467.915894 222.441895,466.147003 
	C221.011032,454.405914 222.356339,443.192627 229.832123,433.497742 
	C235.309937,426.393982 242.621155,422.619354 251.776871,423.066010 
	C249.345779,426.546844 246.825226,429.441864 244.082947,432.527802 
	C243.698898,433.057098 243.536591,433.395447 243.374298,433.733826 
	C243.940506,433.515533 244.506729,433.297272 245.433960,433.038330 
	C251.304184,429.702942 256.813354,426.408173 262.322540,423.113434 
	C270.569244,424.689392 277.366791,428.659576 282.220764,435.979584 
	C279.716705,438.520233 277.515442,440.421906 275.059326,442.535339 
	C273.957550,443.261322 273.110626,443.775482 272.263702,444.289673 
	C272.440796,444.577972 272.617889,444.866272 272.794983,445.154602 
	C273.887695,444.462799 274.980438,443.771027 276.432617,443.038849 
	C279.508484,441.606628 282.224884,440.214813 284.941284,438.822998 
	C286.619904,441.943207 288.298462,445.063416 289.652069,448.684113 
	C286.350281,451.555084 283.373413,453.925598 280.396576,456.296082 
	C280.635681,456.675110 280.874786,457.054138 281.113892,457.433167 
	C284.405273,455.605835 287.696655,453.778503 290.988037,451.951172 
	C292.267975,456.631439 294.463287,461.180359 291.592346,466.181061 
	C290.986725,467.235962 292.470978,469.302612 292.350769,470.853333 
	C291.124298,486.675415 277.701294,500.230865 262.008667,500.970642 
	C262.863922,499.121857 263.777832,497.893097 264.919495,496.476715 
	C265.311340,495.946991 265.475494,495.604889 265.639648,495.262756 
	C265.068787,495.482178 264.497925,495.701599 263.567566,495.961487 
	C260.448639,497.651947 257.689240,499.301941 254.929871,500.951965 
	C250.613525,499.850433 246.297211,498.748901 242.047699,497.002258 
	C245.310593,493.458954 248.506683,490.560760 251.923721,487.469055 
	C252.305573,486.934540 252.466476,486.593567 252.627365,486.252594 
	C252.060226,486.475006 251.493073,486.697418 250.562912,486.960693 
	C246.151611,489.387177 242.103317,491.772766 238.055023,494.158356 
M280.016083,458.193146 
	C279.551270,458.135498 279.086487,458.077820 278.621674,458.020172 
	C278.941315,458.293854 279.260956,458.567566 280.016083,458.193146 
z"/>
<path fill="#000000" opacity="1.000000" stroke="none" 
	d="
M261.854736,423.080139 
	C256.813354,426.408173 251.304184,429.702942 245.244156,432.850464 
	C244.563766,432.581116 244.434219,432.458984 244.304688,432.336853 
	C246.825226,429.441864 249.345779,426.546844 252.022385,423.346069 
	C255.247940,423.042511 258.317413,423.044678 261.854736,423.080139 
z"/>
<path fill="#000000" opacity="1.000000" stroke="none" 
	d="
M251.702774,487.662567 
	C248.506683,490.560760 245.310593,493.458954 241.924469,496.647125 
	C240.607880,496.179138 239.481369,495.421204 238.204941,494.410828 
	C242.103317,491.772766 246.151611,489.387177 250.754791,487.148804 
	C251.440704,487.418213 251.571732,487.540375 251.702774,487.662567 
z"/>
<path fill="#000000" opacity="1.000000" stroke="none" 
	d="
M228.188232,482.443268 
	C231.766876,480.107422 235.485489,478.054840 239.752518,476.153229 
	C240.428055,476.429535 240.555161,476.554901 240.682251,476.680237 
	C237.348511,479.736969 234.014786,482.793671 230.368439,485.979004 
	C229.479950,484.980560 228.904083,483.853546 228.188232,482.443268 
z"/>
<path fill="#000000" opacity="1.000000" stroke="none" 
	d="
M290.855103,451.657227 
	C287.696655,453.778503 284.405273,455.605835 281.113892,457.433167 
	C280.874786,457.054138 280.635681,456.675110 280.396576,456.296082 
	C283.373413,453.925598 286.350281,451.555084 289.650909,449.053345 
	C290.223846,449.735840 290.473022,450.549561 290.855103,451.657227 
z"/>
<path fill="#000000" opacity="1.000000" stroke="none" 
	d="
M264.691772,496.664307 
	C263.777832,497.893097 262.863922,499.121857 261.795471,500.658386 
	C259.621887,501.057465 257.602814,501.148834 255.256821,501.096069 
	C257.689240,499.301941 260.448639,497.651947 263.756378,496.149719 
	C264.433716,496.419708 264.562714,496.541992 264.691772,496.664307 
z"/>
<path fill="#000000" opacity="1.000000" stroke="none" 
	d="
M275.314148,442.323547 
	C277.515442,440.421906 279.716705,438.520233 282.150848,436.351318 
	C283.146851,436.840790 283.909973,437.597504 284.807190,438.588623 
	C282.224884,440.214813 279.508484,441.606628 276.244537,442.848267 
	C275.569366,442.573212 275.441742,442.448395 275.314148,442.323547 
z"/>
<path fill="#F6C93C" opacity="1.000000" stroke="none" 
	d="
M236.953125,354.965363 
	C230.820450,352.040802 228.489990,349.007111 229.697006,345.519684 
	C224.138977,345.498047 218.590622,331.704620 221.346191,323.311462 
	C224.379288,320.412903 227.040588,318.037811 229.921417,315.470428 
	C230.300934,314.940765 230.460953,314.603363 230.620972,314.265961 
	C230.056244,314.484222 229.491547,314.702515 228.569855,314.960815 
	C225.813492,316.336792 223.414108,317.672791 221.014725,319.008759 
	C221.892502,304.934784 232.377838,290.654907 245.526016,287.863068 
	C253.781937,286.110077 262.624878,285.814301 270.725494,291.058716 
	C266.665894,295.436798 262.446136,299.237152 258.226379,303.037506 
	C258.603119,303.518463 258.979858,303.999390 259.356567,304.480316 
	C264.880280,301.261719 270.403992,298.043091 275.927673,294.824493 
	C283.313751,296.768250 291.122253,308.057220 288.282074,312.685669 
	C292.031158,312.647491 293.274475,315.613403 292.688873,324.609009 
	C288.986420,328.221558 285.642700,331.278931 282.079773,334.528137 
	C281.700409,335.056396 281.540222,335.392853 281.380035,335.729248 
	C281.943970,335.512146 282.507935,335.295013 283.433411,335.037262 
	C286.850037,333.356598 289.905151,331.716553 292.960236,330.076477 
	C291.759552,346.541718 283.109283,359.062469 269.501770,362.240265 
	C260.283112,364.393127 250.894302,363.803711 242.535889,358.286285 
	C247.326859,353.421509 251.921387,349.034027 256.515930,344.646545 
	C256.205078,344.240479 255.894226,343.834412 255.583389,343.428345 
	C249.373306,347.274017 243.163208,351.119690 236.953125,354.965363 
M256.851898,305.988220 
	C257.399872,305.479950 257.947815,304.971680 258.495758,304.463409 
	C258.287262,304.222717 258.078735,303.982025 257.870239,303.741302 
	C257.012848,304.273254 256.155426,304.805176 254.857239,305.723419 
	C254.696289,306.063110 254.535339,306.402832 254.374374,306.742523 
	C254.940598,306.521393 255.506821,306.300262 256.851898,305.988220 
M256.984222,342.806854 
	C257.448853,342.864410 257.913452,342.921997 258.378082,342.979553 
	C258.058563,342.706055 257.739014,342.432526 256.984222,342.806854 
z"/>
<path fill="#000000" opacity="1.000000" stroke="none" 
	d="
M237.257233,355.107361 
	C243.163208,351.119690 249.373306,347.274017 255.583389,343.428345 
	C255.894226,343.834412 256.205078,344.240479 256.515930,344.646545 
	C251.921387,349.034027 247.326859,353.421509 242.431946,357.955139 
	C240.608139,357.150665 239.084747,356.199982 237.257233,355.107361 
z"/>
<path fill="#000000" opacity="1.000000" stroke="none" 
	d="
M275.764404,294.562012 
	C270.403992,298.043091 264.880280,301.261719 259.356567,304.480316 
	C258.979858,303.999390 258.603119,303.518463 258.226379,303.037506 
	C262.446136,299.237152 266.665894,295.436798 270.997925,291.297089 
	C272.607178,292.071716 274.104156,293.185638 275.764404,294.562012 
z"/>
<path fill="#000000" opacity="1.000000" stroke="none" 
	d="
M282.298981,334.336304 
	C285.642700,331.278931 288.986420,328.221558 292.644257,325.044495 
	C292.967621,326.356018 292.976898,327.787262 292.973206,329.647491 
	C289.905151,331.716553 286.850037,333.356598 283.242310,334.849609 
	C282.559479,334.580536 282.429230,334.458435 282.298981,334.336304 
z"/>
<path fill="#000000" opacity="1.000000" stroke="none" 
	d="
M221.008667,319.414307 
	C223.414108,317.672791 225.813492,316.336792 228.761475,315.148529 
	C229.440674,315.418396 229.571289,315.540527 229.701904,315.662689 
	C227.040588,318.037811 224.379288,320.412903 221.407410,322.921722 
	C221.065414,321.976898 221.034012,320.898376 221.008667,319.414307 
z"/>
<path fill="#E94458" opacity="1.000000" stroke="none" 
	d="
M484.100769,296.089111 
	C486.420288,298.871185 488.739807,301.653259 490.945374,305.090302 
	C486.324615,309.603760 481.817780,313.462219 477.096619,317.505188 
	C476.782715,318.059357 476.683197,318.429047 476.583679,318.798737 
	C477.079681,318.559418 477.575714,318.320099 478.431366,318.037506 
	C483.514954,315.276398 488.238953,312.558594 492.962921,309.840790 
	C493.516663,310.173309 494.407104,310.385742 494.574829,310.855957 
	C498.622345,322.203857 499.076111,333.568695 493.902557,344.676788 
	C489.204926,354.763000 481.377594,361.357727 470.411438,363.707184 
	C455.547089,366.891785 441.389862,360.679413 433.852844,348.344604 
	C433.016083,346.975250 432.611328,345.341919 432.352509,343.314056 
	C436.388672,339.477264 440.078552,336.157440 443.768463,332.837616 
	C443.427582,332.362640 443.086700,331.887695 442.745819,331.412720 
	C438.560059,333.987854 434.374268,336.562988 430.188477,339.138092 
	C429.229279,334.542511 427.815216,329.983551 427.441284,325.340851 
	C427.081665,320.875153 427.228394,316.203156 428.146271,311.830383 
	C431.189056,297.334534 441.621338,287.960754 455.716003,287.199707 
	C452.987518,291.171783 449.926270,294.677826 446.751404,298.313965 
	C447.531189,298.636200 447.928680,298.945465 448.098907,298.849915 
	C454.445160,295.287292 460.770416,291.687286 467.098541,288.092346 
	C471.303070,289.476318 475.507568,290.860260 479.506622,292.722565 
	C475.304901,296.909088 471.308655,300.617279 467.099915,304.513733 
	C466.779541,305.064270 466.671631,305.426453 466.563751,305.788696 
	C467.065247,305.551483 467.566742,305.314301 468.429504,305.033997 
	C473.894135,302.023651 478.997467,299.056396 484.100769,296.089111 
M445.173309,330.015686 
	C444.641693,330.500549 444.110077,330.985382 443.578461,331.470215 
	C443.780273,331.708252 443.982056,331.946259 444.183838,332.184296 
	C445.019165,331.681274 445.854462,331.178253 447.118652,330.299164 
	C447.224731,329.931549 447.330811,329.563904 447.436859,329.196320 
	C446.933960,329.437195 446.431030,329.678070 445.173309,330.015686 
z"/>
<path fill="#000000" opacity="1.000000" stroke="none" 
	d="
M466.786346,287.820679 
	C460.770416,291.687286 454.445160,295.287292 448.098907,298.849915 
	C447.928680,298.945465 447.531189,298.636200 446.751404,298.313965 
	C449.926270,294.677826 452.987518,291.171783 456.140442,287.316650 
	C459.646118,287.161377 463.060150,287.355225 466.786346,287.820679 
z"/>
<path fill="#000000" opacity="1.000000" stroke="none" 
	d="
M467.312378,304.325439 
	C471.308655,300.617279 475.304901,296.909088 479.602692,293.051758 
	C481.163727,293.794891 482.423218,294.687195 483.891724,295.834290 
	C478.997467,299.056396 473.894135,302.023651 468.243835,304.842834 
	C467.568665,304.571655 467.440521,304.448547 467.312378,304.325439 
z"/>
<path fill="#000000" opacity="1.000000" stroke="none" 
	d="
M477.310944,317.320679 
	C481.817780,313.462219 486.324615,309.603760 491.012756,305.454468 
	C491.782562,306.503204 492.371094,307.842743 492.961243,309.511536 
	C488.238953,312.558594 483.514954,315.276398 478.244385,317.844299 
	C477.568848,317.569794 477.439911,317.445221 477.310944,317.320679 
z"/>
<path fill="#000000" opacity="1.000000" stroke="none" 
	d="
M430.283539,339.442810 
	C434.374268,336.562988 438.560059,333.987854 442.745819,331.412720 
	C443.086700,331.887695 443.427582,332.362640 443.768463,332.837616 
	C440.078552,336.157440 436.388672,339.477264 432.395508,342.947449 
	C431.520996,341.981018 430.949799,340.864258 430.283539,339.442810 
z"/>
<path fill="#E94458" opacity="1.000000" stroke="none" 
	d="
M439.016479,217.138733 
	C436.917908,214.735168 434.513306,212.512451 432.917297,209.811890 
	C432.469910,209.054855 434.402405,206.891342 435.366577,205.150284 
	C434.224121,205.499268 432.861328,205.915573 431.033203,206.474030 
	C427.548523,198.433990 425.847961,189.855911 427.165894,181.077835 
	C428.033691,175.297729 429.521820,169.284729 432.229187,164.168121 
	C440.267761,148.975906 456.839905,146.877304 470.528534,150.866440 
	C473.883270,151.844086 477.462006,153.232193 480.045349,155.464401 
	C489.103058,163.290985 496.284424,172.413284 496.689575,185.640167 
	C494.327881,188.235336 492.316956,190.289902 490.020874,192.579819 
	C489.176910,193.221832 488.618073,193.628510 488.059235,194.035172 
	C488.201630,194.244507 488.344025,194.453842 488.486420,194.663177 
	C489.351624,194.139526 490.216797,193.615860 491.428040,193.050323 
	C493.463776,191.959030 495.153473,190.909607 496.843170,189.860184 
	C499.259857,197.680176 495.947723,204.553619 492.716614,211.141815 
	C486.795990,223.213791 474.197357,229.832596 460.694641,228.265411 
	C463.719543,224.756531 466.704468,221.716019 469.903809,218.487473 
	C470.224548,217.931976 470.330841,217.564499 470.437134,217.197037 
	C469.934235,217.437851 469.431396,217.678665 468.570374,217.962585 
	C463.459778,220.996353 458.707306,223.987030 453.954803,226.977692 
	C450.211090,225.203064 446.467407,223.428452 442.914001,221.011368 
	C446.997406,216.867035 450.890503,213.365158 454.783600,209.863297 
	C454.449036,209.399826 454.114502,208.936371 453.779968,208.472900 
	C448.858795,211.361511 443.937653,214.250122 439.016479,217.138733 
M456.168030,207.017227 
	C455.631165,207.510147 455.094299,208.003052 454.557434,208.495972 
	C454.761536,208.733200 454.965637,208.970428 455.169739,209.207642 
	C456.009735,208.696915 456.849701,208.186172 458.118683,207.299393 
	C458.224854,206.931747 458.331024,206.564102 458.437195,206.196457 
	C457.934204,206.437347 457.431244,206.678253 456.168030,207.017227 
M486.900299,194.801544 
	C487.010315,195.140259 487.120331,195.478973 487.230347,195.817673 
	C487.346069,195.387878 487.461792,194.958069 486.900299,194.801544 
z"/>
<path fill="#000000" opacity="1.000000" stroke="none" 
	d="
M439.165527,217.393768 
	C443.937653,214.250122 448.858795,211.361511 453.779968,208.472900 
	C454.114502,208.936371 454.449036,209.399826 454.783600,209.863297 
	C450.890503,213.365158 446.997406,216.867035 442.883423,220.641510 
	C441.546539,219.825668 440.430542,218.737228 439.165527,217.393768 
z"/>
<path fill="#000000" opacity="1.000000" stroke="none" 
	d="
M469.689392,218.675476 
	C466.704468,221.716019 463.719543,224.756531 460.442444,227.956360 
	C458.325928,227.842300 456.501617,227.568909 454.316040,227.136612 
	C458.707306,223.987030 463.459778,220.996353 468.757385,218.154816 
	C469.431488,218.427795 469.560455,218.551636 469.689392,218.675476 
z"/>
<path fill="#000000" opacity="1.000000" stroke="none" 
	d="
M496.892090,189.469543 
	C495.153473,190.909607 493.463776,191.959030 491.237091,192.860229 
	C490.568726,192.589478 490.437378,192.466965 490.306030,192.344482 
	C492.316956,190.289902 494.327881,188.235336 496.646942,186.057571 
	C496.950378,186.982559 496.945709,188.030716 496.892090,189.469543 
z"/>
<path fill="#000000" opacity="1.000000" stroke="none" 
	d="
M36.113731,271.104858 
	C36.820492,270.371582 37.713860,269.822662 38.607231,269.273743 
	C38.763885,269.495178 38.920540,269.716614 39.077198,269.938049 
	C38.470657,270.334869 37.864117,270.731659 36.969292,271.389282 
	C36.554115,271.529785 36.427223,271.409485 36.113731,271.104858 
z"/>
<path fill="#000000" opacity="1.000000" stroke="none" 
	d="
M56.117905,277.109192 
	C56.492462,276.699677 57.057804,276.478668 57.623146,276.257690 
	C57.461990,276.598175 57.300831,276.938629 56.919548,277.472198 
	C56.569176,277.542755 56.438931,277.420258 56.117905,277.109192 
z"/>
<path fill="#000000" opacity="1.000000" stroke="none" 
	d="
M39.210060,268.483948 
	C39.740013,268.434509 40.055950,268.706177 40.371887,268.977875 
	C39.913277,268.920288 39.454662,268.862701 39.210060,268.483948 
z"/>
<path fill="#000000" opacity="1.000000" stroke="none" 
	d="
M31.117905,255.109192 
	C31.491928,254.701111 32.056824,254.481644 32.621712,254.262177 
	C32.460903,254.601608 32.300106,254.941040 31.919506,255.472992 
	C31.569395,255.542923 31.439083,255.420349 31.117905,255.109192 
z"/>
<path fill="#000000" opacity="1.000000" stroke="none" 
	d="
M75.890823,252.902618 
	C75.515259,253.309753 74.944176,253.526123 74.373093,253.742493 
	C74.533783,253.403488 74.694466,253.064484 75.075317,252.532532 
	C75.428749,252.463684 75.562027,252.587769 75.890823,252.902618 
z"/>
<path fill="#000000" opacity="1.000000" stroke="none" 
	d="
M59.198204,245.860794 
	C58.968460,245.470306 59.121002,245.052307 59.273552,244.634308 
	C59.375866,245.033966 59.478180,245.433624 59.198204,245.860794 
z"/>
<path fill="#000000" opacity="1.000000" stroke="none" 
	d="
M44.117832,414.109100 
	C44.491879,413.700928 45.056805,413.481384 45.621735,413.261871 
	C45.460903,413.601349 45.300068,413.940826 44.919434,414.472870 
	C44.569328,414.542877 44.439018,414.420319 44.117832,414.109100 
z"/>
<path fill="#000000" opacity="1.000000" stroke="none" 
	d="
M37.790070,367.515869 
	C37.260117,367.565369 36.944187,367.293701 36.628262,367.022003 
	C37.086876,367.079559 37.545486,367.137115 37.790070,367.515869 
z"/>
<path fill="#000000" opacity="1.000000" stroke="none" 
	d="
M50.882149,97.890854 
	C50.508221,98.298828 49.943512,98.518242 49.378807,98.737656 
	C49.539654,98.398361 49.700508,98.059067 50.080997,97.527237 
	C50.430882,97.457214 50.561123,97.579750 50.882149,97.890854 
z"/>
<path fill="#000000" opacity="1.000000" stroke="none" 
	d="
M71.882629,115.891846 
	C71.507439,116.300064 70.941895,116.520645 70.376350,116.741226 
	C70.540245,116.403984 70.704147,116.066750 71.085220,115.533997 
	C71.432350,115.460396 71.562309,115.582298 71.882629,115.891846 
z"/>
<path fill="#000000" opacity="1.000000" stroke="none" 
	d="
M38.400673,129.435928 
	C38.117218,129.864014 37.641544,129.975250 37.165871,130.086487 
	C37.513401,129.764008 37.860928,129.441544 38.400673,129.435928 
z"/>
<path fill="#000000" opacity="1.000000" stroke="none" 
	d="
M54.422523,138.439758 
	C54.136257,138.874298 53.652084,138.988464 53.167908,139.102615 
	C53.520145,138.774857 53.872383,138.447113 54.422523,138.439758 
z"/>
<path fill="#000000" opacity="1.000000" stroke="none" 
	d="
M77.197823,132.860687 
	C76.968147,132.470215 77.120674,132.052261 77.273193,131.634308 
	C77.375481,132.033951 77.477753,132.433578 77.197823,132.860687 
z"/>
<path fill="#000000" opacity="1.000000" stroke="none" 
	d="
M233.113220,51.106815 
	C234.018127,50.226170 235.109390,49.531559 236.200668,48.836948 
	C236.375488,49.133583 236.550308,49.430218 236.725128,49.726852 
	C235.877533,50.225250 235.029938,50.723648 233.932312,51.438339 
	C233.554703,51.534042 233.427139,51.413445 233.113220,51.106815 
z"/>
<path fill="#000000" opacity="1.000000" stroke="none" 
	d="
M251.117813,77.107330 
	C251.493134,76.698128 252.059402,76.475456 252.625671,76.252792 
	C252.461533,76.589836 252.297394,76.926880 251.916290,77.460907 
	C251.569138,77.536545 251.438950,77.415207 251.117813,77.107330 
z"/>
<path fill="#000000" opacity="1.000000" stroke="none" 
	d="
M243.124420,64.117958 
	C243.499344,63.712341 244.061829,63.493443 244.624313,63.274544 
	C244.461349,63.611313 244.298386,63.948082 243.915710,64.476929 
	C243.567993,64.547569 243.440002,64.426125 243.124420,64.117958 
z"/>
<path fill="#000000" opacity="1.000000" stroke="none" 
	d="
M279.882812,47.893608 
	C279.516327,48.301167 278.959198,48.522785 278.402100,48.744404 
	C278.560455,48.409313 278.718811,48.074223 279.089355,47.542442 
	C279.431732,47.466389 279.561981,47.587032 279.882812,47.893608 
z"/>
<path fill="#000000" opacity="1.000000" stroke="none" 
	d="
M264.881775,38.891369 
	C264.506958,39.300541 263.940582,39.521736 263.374237,39.742931 
	C263.535126,39.403107 263.695984,39.063286 264.077332,38.530327 
	C264.428619,38.459251 264.559418,38.581322 264.881775,38.891369 
z"/>
<path fill="#000000" opacity="1.000000" stroke="none" 
	d="
M242.120300,208.111328 
	C242.494476,207.706177 243.057724,207.487030 243.620987,207.267883 
	C243.456253,207.601318 243.291504,207.934723 242.911499,208.464142 
	C242.567291,208.539200 242.438324,208.418243 242.120300,208.111328 
z"/>
<path fill="#000000" opacity="1.000000" stroke="none" 
	d="
M240.113953,476.112549 
	C241.023697,475.220581 242.120438,474.520325 243.217178,473.820068 
	C243.394211,474.110291 243.571259,474.400543 243.748306,474.690796 
	C242.900803,475.217377 242.053314,475.743958 240.944031,476.475403 
	C240.555161,476.554901 240.428055,476.429535 240.113953,476.112549 
z"/>
<path fill="#000000" opacity="1.000000" stroke="none" 
	d="
M275.885071,442.888641 
	C274.980438,443.771027 273.887695,444.462799 272.794983,445.154602 
	C272.617889,444.866272 272.440796,444.577972 272.263702,444.289673 
	C273.110626,443.775482 273.957550,443.261322 275.059326,442.535339 
	C275.441742,442.448395 275.569366,442.573212 275.885071,442.888641 
z"/>
<path fill="#000000" opacity="1.000000" stroke="none" 
	d="
M279.798340,458.517212 
	C279.260956,458.567566 278.941315,458.293854 278.621674,458.020172 
	C279.086487,458.077820 279.551270,458.135498 279.798340,458.517212 
z"/>
<path fill="#000000" opacity="1.000000" stroke="none" 
	d="
M244.883118,432.891113 
	C244.506729,433.297272 243.940506,433.515533 243.374298,433.733826 
	C243.536591,433.395447 243.698898,433.057098 244.082947,432.527802 
	C244.434219,432.458984 244.563766,432.581116 244.883118,432.891113 
z"/>
<path fill="#000000" opacity="1.000000" stroke="none" 
	d="
M251.117813,487.107971 
	C251.493073,486.697418 252.060226,486.475006 252.627365,486.252594 
	C252.466476,486.593567 252.305573,486.934540 251.923721,487.469055 
	C251.571732,487.540375 251.440704,487.418213 251.117813,487.107971 
z"/>
<path fill="#000000" opacity="1.000000" stroke="none" 
	d="
M264.115906,496.109253 
	C264.497925,495.701599 265.068787,495.482178 265.639648,495.262756 
	C265.475494,495.604889 265.311340,495.946991 264.919464,496.476685 
	C264.562714,496.541992 264.433716,496.419708 264.115906,496.109253 
z"/>
<path fill="#000000" opacity="1.000000" stroke="none" 
	d="
M255.298035,305.337128 
	C256.155426,304.805176 257.012848,304.273254 257.870239,303.741302 
	C258.078735,303.982025 258.287262,304.222717 258.495758,304.463409 
	C257.947815,304.971680 257.399872,305.479950 256.271057,305.845734 
	C255.559494,305.581177 255.428757,305.459137 255.298035,305.337128 
z"/>
<path fill="#000000" opacity="1.000000" stroke="none" 
	d="
M255.881638,305.891174 
	C255.506821,306.300262 254.940598,306.521393 254.374374,306.742523 
	C254.535339,306.402832 254.696289,306.063110 255.077637,305.530273 
	C255.428757,305.459137 255.559494,305.581177 255.881638,305.891174 
z"/>
<path fill="#000000" opacity="1.000000" stroke="none" 
	d="
M229.118439,315.108521 
	C229.491547,314.702515 230.056244,314.484222 230.620972,314.265961 
	C230.460953,314.603363 230.300934,314.940765 229.921417,315.470428 
	C229.571289,315.540527 229.440674,315.418396 229.118439,315.108521 
z"/>
<path fill="#000000" opacity="1.000000" stroke="none" 
	d="
M282.880798,334.890259 
	C282.507935,335.295013 281.943970,335.512146 281.380035,335.729248 
	C281.540222,335.392853 281.700409,335.056396 282.079773,334.528137 
	C282.429230,334.458435 282.559479,334.580536 282.880798,334.890259 
z"/>
<path fill="#000000" opacity="1.000000" stroke="none" 
	d="
M257.201843,342.482941 
	C257.739014,342.432526 258.058563,342.706055 258.378082,342.979553 
	C257.913452,342.921997 257.448853,342.864410 257.201843,342.482941 
z"/>
<path fill="#000000" opacity="1.000000" stroke="none" 
	d="
M446.689758,330.675232 
	C445.854462,331.178253 445.019165,331.681274 444.183838,332.184296 
	C443.982056,331.946259 443.780273,331.708252 443.578461,331.470215 
	C444.110077,330.985382 444.641693,330.500549 445.737915,330.159607 
	C446.431580,330.427429 446.560669,330.551331 446.689758,330.675232 
z"/>
<path fill="#000000" opacity="1.000000" stroke="none" 
	d="
M467.882538,304.885925 
	C467.566742,305.314301 467.065247,305.551483 466.563751,305.788696 
	C466.671631,305.426453 466.779541,305.064270 467.099915,304.513763 
	C467.440521,304.448547 467.568665,304.571655 467.882538,304.885925 
z"/>
<path fill="#000000" opacity="1.000000" stroke="none" 
	d="
M477.884766,317.887573 
	C477.575714,318.320099 477.079681,318.559418 476.583679,318.798737 
	C476.683197,318.429047 476.782715,318.059357 477.096619,317.505188 
	C477.439911,317.445221 477.568848,317.569794 477.884766,317.887573 
z"/>
<path fill="#000000" opacity="1.000000" stroke="none" 
	d="
M446.115295,330.111237 
	C446.431030,329.678070 446.933960,329.437195 447.436859,329.196289 
	C447.330811,329.563904 447.224731,329.931549 446.904205,330.487183 
	C446.560669,330.551331 446.431580,330.427429 446.115295,330.111237 
z"/>
<path fill="#000000" opacity="1.000000" stroke="none" 
	d="
M457.689697,207.675430 
	C456.849701,208.186172 456.009735,208.696915 455.169739,209.207642 
	C454.965637,208.970428 454.761536,208.733200 454.557434,208.495972 
	C455.094299,208.003052 455.631165,207.510147 456.735291,207.160492 
	C457.431641,207.427643 457.560669,207.551544 457.689697,207.675430 
z"/>
<path fill="#000000" opacity="1.000000" stroke="none" 
	d="
M490.891052,192.902100 
	C490.216797,193.615860 489.351624,194.139526 488.486420,194.663177 
	C488.344025,194.453842 488.201630,194.244507 488.059235,194.035172 
	C488.618073,193.628510 489.176910,193.221832 490.020874,192.579803 
	C490.437378,192.466965 490.568726,192.589478 490.891052,192.902100 
z"/>
<path fill="#000000" opacity="1.000000" stroke="none" 
	d="
M487.238892,194.664917 
	C487.461792,194.958069 487.346069,195.387878 487.230347,195.817673 
	C487.120331,195.478973 487.010315,195.140259 487.238892,194.664917 
z"/>
<path fill="#000000" opacity="1.000000" stroke="none" 
	d="
M469.115540,218.111710 
	C469.431396,217.678665 469.934235,217.437851 470.437134,217.197037 
	C470.330841,217.564499 470.224548,217.931976 469.903809,218.487457 
	C469.560455,218.551636 469.431488,218.427795 469.115540,218.111710 
z"/>
<path fill="#000000" opacity="1.000000" stroke="none" 
	d="
M457.115417,207.111450 
	C457.431244,206.678253 457.934204,206.437347 458.437195,206.196472 
	C458.331024,206.564102 458.224854,206.931747 457.904175,207.487411 
	C457.560669,207.551544 457.431641,207.427643 457.115417,207.111450 
z"/>
</svg>