<svg xmlns="http://www.w3.org/2000/svg" width="214" height="226" viewBox="0 0 214 226" version="1.1"><path d="M 59 12.094 C 38.855 23.014, 22.493 40.191, 12.153 61.273 C 3.684 78.539, 0.537 92.554, 0.537 113 C 0.537 138.435, 6.416 158.023, 20.240 178.652 L 25.500 186.500 26.114 180.071 C 26.715 173.779, 26.639 173.503, 22.495 167.071 C 17.978 160.059, 12.250 147.755, 10.824 142 C 3.142 110.998, 7.594 83.410, 24.297 58.500 C 29.425 50.852, 42.688 37.642, 50.699 32.204 C 55.352 29.044, 57.527 26.741, 59.426 22.961 C 60.816 20.192, 63.314 15.950, 64.977 13.533 C 69.756 6.587, 69.342 6.487, 59 12.094 M 153.514 12.047 C 154 12.846, 156.070 16.099, 158.115 19.276 C 160.160 22.452, 162.141 26.877, 162.518 29.108 C 163.103 32.569, 164.782 34.728, 173.969 43.832 C 188.665 58.394, 194.784 68.449, 200.675 87.716 C 203.136 95.767, 203.366 97.961, 203.424 114 C 203.501 134.831, 202.152 140.843, 193.406 158.666 L 187.927 169.832 189.960 173.166 C 191.078 175, 192.010 177.400, 192.032 178.500 C 192.096 181.705, 196.155 176.092, 201.401 165.545 C 210.286 147.681, 213.463 133.843, 213.463 113 C 213.463 92.554, 210.316 78.539, 201.847 61.273 C 194.190 45.662, 182.714 31.529, 169.717 21.707 C 161.304 15.349, 152.235 9.942, 153.514 12.047 M 79.051 29.345 C 78.418 31.262, 76.118 34.856, 73.940 37.330 C 70.370 41.386, 69.872 42.632, 68.884 49.974 C 68.281 54.454, 67.974 63.155, 68.201 69.309 C 68.567 79.214, 68.968 81.263, 71.692 87.134 C 75.234 94.769, 81.062 104, 82.340 104 C 82.820 104, 84.900 102.663, 86.962 101.030 C 92.541 96.612, 94.510 96.160, 109.688 95.815 L 123.590 95.500 130.115 99.750 C 133.703 102.088, 136.886 104, 137.187 104 C 138.671 104, 143.189 95.225, 147.392 84.176 L 152.073 71.874 150.993 57.405 C 150.399 49.447, 149.633 42.207, 149.291 41.316 C 148.949 40.425, 146.996 38.185, 144.952 36.337 C 142.907 34.490, 140.723 31.746, 140.099 30.239 L 138.964 27.500 113.732 27.500 C 99.855 27.500, 86.633 27.131, 84.351 26.679 C 80.249 25.868, 80.189 25.898, 79.051 29.345 M 55.934 60.245 C 53.840 68.022, 58.318 81.985, 63.979 85.328 L 67 87.113 67 81.223 C 67 77.984, 66.662 74.996, 66.250 74.583 C 65.838 74.171, 65.460 73.533, 65.411 73.167 C 65.363 72.800, 64.192 70.025, 62.810 67 C 61.428 63.975, 59.997 60.263, 59.630 58.750 C 58.668 54.789, 57.249 55.362, 55.934 60.245 M 158.047 61.194 C 157.315 64.051, 155.933 68.214, 154.977 70.444 C 153.056 74.927, 151.509 86, 152.804 86 C 154.273 86, 158.726 80.607, 161.001 76.072 C 162.222 73.637, 163.444 69.137, 163.715 66.072 C 164.121 61.498, 163.856 60.097, 162.237 58.250 C 161.153 57.013, 160.066 56, 159.822 56 C 159.578 56, 158.779 58.338, 158.047 61.194 M 102.438 103.267 C 98.678 104.781, 90.004 110.266, 90.002 111.131 C 90.001 111.479, 91.463 112.874, 93.250 114.233 C 104.214 122.567, 113.937 123.072, 125.056 115.885 C 128.541 113.633, 130.881 111.499, 130.385 111.026 C 129.898 110.562, 126.482 108.536, 122.794 106.524 C 115.302 102.436, 107.571 101.199, 102.438 103.267 M 135.385 127.216 C 133.798 128.434, 132.275 129.676, 132 129.975 C 131.725 130.274, 129.700 131.682, 127.500 133.103 C 114.914 141.235, 100.800 140.047, 88.692 129.837 C 86.047 127.607, 83.585 126.082, 83.219 126.448 C 82.853 126.813, 82.382 133.050, 82.173 140.306 L 81.791 153.500 88.402 157.869 C 92.039 160.272, 97.799 163.363, 101.203 164.738 C 111.960 169.083, 123.423 167.039, 135.451 158.631 C 139.801 155.591, 140.116 154.963, 139.539 150.500 C 139.254 148.300, 138.965 141.662, 138.897 135.750 C 138.828 129.838, 138.660 125, 138.521 125 C 138.383 125, 136.972 125.997, 135.385 127.216 M 37 198.369 C 37 198.634, 40.641 201.594, 45.090 204.947 C 55.427 212.736, 68.964 219.312, 81.571 222.667 C 90.273 224.983, 93.415 225.310, 107 225.310 C 120.595 225.310, 123.729 224.984, 132.500 222.656 C 142.874 219.902, 160.262 211.867, 165.500 207.407 C 168.449 204.896, 168.397 204.903, 162.500 207.806 C 154.849 211.573, 139.652 216.397, 130 218.123 C 119.144 220.064, 95.454 219.824, 85 217.668 C 70 214.574, 53.328 208.043, 41.250 200.530 C 38.913 199.076, 37 198.104, 37 198.369" stroke="none" fill="#f9d1cd" fill-rule="evenodd"/><path d="M 89.393 1.025 C 81.706 2.406, 68 6.947, 68 8.113 C 68 8.678, 66.640 11.117, 64.977 13.533 C 63.314 15.950, 60.816 20.192, 59.426 22.961 C 57.527 26.741, 55.352 29.044, 50.699 32.204 C 42.688 37.642, 29.425 50.852, 24.297 58.500 C 9.850 80.046, 4.044 106.474, 8.480 130.500 C 11.320 145.883, 14.945 155.351, 22.461 167.019 C 26.471 173.244, 26.641 173.819, 26.211 179.755 C 25.907 183.961, 25.403 185.749, 24.654 185.286 C 24.044 184.909, 25.560 186.970, 28.023 189.866 C 30.485 192.762, 34.413 196.270, 36.750 197.661 C 39.088 199.052, 40.780 200.546, 40.511 200.982 C 40.242 201.417, 40.805 202.387, 41.761 203.137 C 43.366 204.395, 43.385 204.353, 42 202.587 C 40.247 200.353, 39.610 200.118, 53 206.646 C 72.483 216.145, 86.521 219.411, 108 219.443 C 115.975 219.454, 125.875 218.860, 130 218.123 C 139.757 216.378, 154.966 211.532, 162.349 207.816 C 165.565 206.196, 167.833 205.463, 167.387 206.186 C 166.032 208.382, 174.193 201.551, 181.124 194.688 C 187.183 188.688, 197.409 175.796, 193.669 178.872 C 192.216 180.067, 192 180.003, 191.996 178.372 C 191.994 177.343, 191.078 175, 189.960 173.166 L 187.927 169.832 193.406 158.666 C 202.152 140.843, 203.501 134.831, 203.424 114 C 203.366 97.961, 203.136 95.767, 200.675 87.716 C 194.784 68.449, 188.665 58.394, 173.969 43.832 C 164.782 34.728, 163.103 32.569, 162.518 29.108 C 162.141 26.877, 160.062 22.311, 157.897 18.962 C 155.732 15.613, 154.264 12.381, 154.635 11.782 C 155.039 11.129, 154.846 10.977, 154.155 11.405 C 153.520 11.797, 153 11.689, 153 11.165 C 153 10.003, 142.574 5.752, 132.744 2.907 C 124.512 0.524, 98.476 -0.606, 89.393 1.025 M 40.872 23.750 C 39.629 25.336, 39.664 25.371, 41.250 24.128 C 42.212 23.373, 43 22.585, 43 22.378 C 43 21.555, 42.179 22.084, 40.872 23.750 M 171 22.378 C 171 22.585, 171.787 23.373, 172.750 24.128 C 174.336 25.371, 174.371 25.336, 173.128 23.750 C 171.821 22.084, 171 21.555, 171 22.378 M 79.051 29.345 C 78.418 31.262, 76.118 34.856, 73.940 37.330 C 70.370 41.386, 69.872 42.632, 68.884 49.974 C 68.281 54.454, 67.974 63.155, 68.201 69.309 C 68.567 79.214, 68.968 81.263, 71.692 87.134 C 75.234 94.769, 81.062 104, 82.340 104 C 82.820 104, 84.900 102.663, 86.962 101.030 C 92.541 96.612, 94.510 96.160, 109.688 95.815 L 123.590 95.500 130.115 99.750 C 133.703 102.088, 136.886 104, 137.187 104 C 138.671 104, 143.189 95.225, 147.392 84.176 L 152.073 71.874 150.993 57.405 C 150.399 49.447, 149.633 42.207, 149.291 41.316 C 148.949 40.425, 146.996 38.185, 144.952 36.337 C 142.907 34.490, 140.723 31.746, 140.099 30.239 L 138.964 27.500 113.732 27.500 C 99.855 27.500, 86.633 27.131, 84.351 26.679 C 80.249 25.868, 80.189 25.898, 79.051 29.345 M 31.405 32.250 L 29.500 34.500 31.750 32.595 C 33.864 30.805, 34.455 30, 33.655 30 C 33.465 30, 32.453 31.012, 31.405 32.250 M 181.500 32 C 182.495 33.100, 183.535 34, 183.810 34 C 184.085 34, 183.495 33.100, 182.500 32 C 181.505 30.900, 180.465 30, 180.190 30 C 179.915 30, 180.505 30.900, 181.500 32 M 25.405 39.250 L 23.500 41.500 25.750 39.595 C 26.988 38.547, 28 37.535, 28 37.345 C 28 36.545, 27.195 37.136, 25.405 39.250 M 187.500 39 C 188.495 40.100, 189.535 41, 189.810 41 C 190.085 41, 189.495 40.100, 188.500 39 C 187.505 37.900, 186.465 37, 186.190 37 C 185.915 37, 186.505 37.900, 187.500 39 M 55.934 60.245 C 53.840 68.022, 58.318 81.985, 63.979 85.328 L 67 87.113 67 81.223 C 67 77.984, 66.662 74.996, 66.250 74.583 C 65.838 74.171, 65.460 73.533, 65.411 73.167 C 65.363 72.800, 64.192 70.025, 62.810 67 C 61.428 63.975, 59.997 60.263, 59.630 58.750 C 58.668 54.789, 57.249 55.362, 55.934 60.245 M 158.047 61.194 C 157.315 64.051, 155.933 68.214, 154.977 70.444 C 153.056 74.927, 151.509 86, 152.804 86 C 154.273 86, 158.726 80.607, 161.001 76.072 C 162.222 73.637, 163.444 69.137, 163.715 66.072 C 164.121 61.498, 163.856 60.097, 162.237 58.250 C 161.153 57.013, 160.066 56, 159.822 56 C 159.578 56, 158.779 58.338, 158.047 61.194 M 1.079 93.583 C 1.127 94.748, 1.364 94.985, 1.683 94.188 C 1.972 93.466, 1.936 92.603, 1.604 92.271 C 1.272 91.939, 1.036 92.529, 1.079 93.583 M 212.079 93.583 C 212.127 94.748, 212.364 94.985, 212.683 94.188 C 212.972 93.466, 212.936 92.603, 212.604 92.271 C 212.272 91.939, 212.036 92.529, 212.079 93.583 M 0.158 101 C 0.158 102.375, 0.385 102.938, 0.662 102.250 C 0.940 101.563, 0.940 100.438, 0.662 99.750 C 0.385 99.063, 0.158 99.625, 0.158 101 M 213.158 101 C 213.158 102.375, 213.385 102.938, 213.662 102.250 C 213.940 101.563, 213.940 100.438, 213.662 99.750 C 213.385 99.063, 213.158 99.625, 213.158 101 M 102.438 103.267 C 98.678 104.781, 90.004 110.266, 90.002 111.131 C 90.001 111.479, 91.463 112.874, 93.250 114.233 C 104.214 122.567, 113.937 123.072, 125.056 115.885 C 128.541 113.633, 130.881 111.499, 130.385 111.026 C 129.898 110.562, 126.482 108.536, 122.794 106.524 C 115.302 102.436, 107.571 101.199, 102.438 103.267 M 0.158 125 C 0.158 126.375, 0.385 126.938, 0.662 126.250 C 0.940 125.563, 0.940 124.438, 0.662 123.750 C 0.385 123.063, 0.158 123.625, 0.158 125 M 213.158 125 C 213.158 126.375, 213.385 126.938, 213.662 126.250 C 213.940 125.563, 213.940 124.438, 213.662 123.750 C 213.385 123.063, 213.158 123.625, 213.158 125 M 135.385 127.216 C 133.798 128.434, 132.275 129.676, 132 129.975 C 131.725 130.274, 129.700 131.682, 127.500 133.103 C 114.914 141.235, 100.800 140.047, 88.692 129.837 C 86.047 127.607, 83.585 126.082, 83.219 126.448 C 82.853 126.813, 82.382 133.050, 82.173 140.306 L 81.791 153.500 88.402 157.869 C 92.039 160.272, 97.799 163.363, 101.203 164.738 C 111.960 169.083, 123.423 167.039, 135.451 158.631 C 139.801 155.591, 140.116 154.963, 139.539 150.500 C 139.254 148.300, 138.965 141.662, 138.897 135.750 C 138.828 129.838, 138.660 125, 138.521 125 C 138.383 125, 136.972 125.997, 135.385 127.216 M 1.079 132.583 C 1.127 133.748, 1.364 133.985, 1.683 133.188 C 1.972 132.466, 1.936 131.603, 1.604 131.271 C 1.272 130.939, 1.036 131.529, 1.079 132.583 M 212.079 132.583 C 212.127 133.748, 212.364 133.985, 212.683 133.188 C 212.972 132.466, 212.936 131.603, 212.604 131.271 C 212.272 130.939, 212.036 131.529, 212.079 132.583 M 94.750 225.662 C 95.438 225.940, 96.563 225.940, 97.250 225.662 C 97.938 225.385, 97.375 225.158, 96 225.158 C 94.625 225.158, 94.063 225.385, 94.750 225.662 M 116.750 225.662 C 117.438 225.940, 118.563 225.940, 119.250 225.662 C 119.938 225.385, 119.375 225.158, 118 225.158 C 116.625 225.158, 116.063 225.385, 116.750 225.662" stroke="none" fill="#a53bee" fill-rule="evenodd"/></svg>