<?xml version="1.0" standalone="no"?>
<!DOCTYPE svg PUBLIC "-//W3C//DTD SVG 20010904//EN"
 "http://www.w3.org/TR/2001/REC-SVG-20010904/DTD/svg10.dtd">
<svg version="1.0" xmlns="http://www.w3.org/2000/svg"
 width="400.000000pt" height="400.000000pt" viewBox="0 0 400.000000 400.000000"
 preserveAspectRatio="xMidYMid meet">

<g transform="translate(0.000000,400.000000) scale(0.100000,-0.100000)"
fill="#000000" stroke="none">
<path d="M1010 3149 l0 -342 53 50 c122 115 319 230 463 269 35 9 64 20 64 23
0 4 -24 20 -52 37 -29 17 -145 83 -258 148 -113 65 -220 127 -237 138 l-33 20
0 -343z"/>
<path d="M1706 3039 c-60 -9 -246 -56 -255 -64 -2 -3 34 -5 80 -5 46 -1 119
-7 163 -15 l78 -14 53 30 c28 16 84 37 124 48 48 11 67 20 56 25 -23 8 -227 5
-299 -5z"/>
<path d="M1997 2916 c-69 -19 -77 -31 -33 -50 53 -22 164 -96 224 -150 l53
-46 44 30 c23 16 73 45 109 64 l67 34 -38 29 c-114 90 -287 126 -426 89z"/>
<path d="M1332 2838 c-49 -9 -56 -14 -83 -56 -16 -26 -41 -83 -56 -127 -22
-67 -26 -99 -26 -200 -1 -147 22 -243 92 -390 46 -95 122 -210 140 -210 4 0
55 63 113 140 58 77 133 170 167 207 33 36 61 69 61 73 0 4 -15 33 -34 64 -85
141 -104 327 -45 442 11 23 18 43 16 45 -21 22 -249 29 -345 12z"/>
<path d="M1784 2735 c-26 -56 -34 -147 -18 -211 6 -24 59 -141 70 -153 1 -1
40 28 86 66 46 38 109 88 141 112 32 23 56 48 54 54 -5 19 -208 150 -261 169
l-47 18 -25 -55z"/>
<path d="M2460 2655 c-36 -19 -78 -46 -94 -58 l-29 -24 64 -90 c35 -49 80
-117 99 -151 19 -34 39 -60 45 -59 5 2 21 26 35 53 22 42 25 62 25 144 0 84
-3 102 -29 158 -16 34 -34 62 -40 62 -6 0 -40 -16 -76 -35z"/>
<path d="M993 2577 c-60 -89 -106 -196 -141 -326 -22 -83 -25 -117 -25 -251 0
-137 3 -167 27 -255 44 -166 155 -366 248 -453 l25 -23 29 88 c16 48 61 151
99 229 l70 140 -63 80 c-166 210 -254 507 -223 753 6 47 9 86 7 88 -2 2 -26
-29 -53 -70z"/>
<path d="M2111 2420 c-57 -43 -120 -95 -140 -114 l-36 -37 25 -20 c40 -31 143
-78 201 -90 65 -14 206 -7 242 13 l27 14 -51 89 c-49 87 -147 225 -158 225 -4
-1 -53 -36 -110 -80z"/>
<path d="M2738 2415 c-8 -86 -42 -166 -94 -223 -24 -28 -44 -55 -44 -60 0 -6
13 -50 29 -99 17 -48 37 -121 47 -162 15 -70 18 -73 31 -55 52 67 103 239 103
347 0 73 -27 221 -49 271 l-18 41 -5 -60z"/>
<path d="M2994 2323 c54 -178 59 -422 11 -605 -8 -29 -12 -54 -10 -56 4 -4
116 58 295 164 58 34 147 85 198 113 50 29 92 56 92 60 0 5 -39 31 -87 58 -49
27 -179 102 -291 166 -111 64 -205 117 -208 117 -3 0 -3 -8 0 -17z"/>
<path d="M1754 2089 c-43 -50 -119 -146 -168 -212 l-88 -122 30 -25 c54 -45
176 -108 267 -139 126 -42 218 -54 370 -49 112 4 142 9 217 35 118 41 188 86
188 122 0 63 -71 344 -90 356 -4 3 -27 -2 -51 -11 -155 -55 -399 -9 -544 101
-25 19 -46 35 -48 35 -2 0 -39 -41 -83 -91z"/>
<path d="M2892 1950 c-17 -73 -80 -201 -135 -276 l-45 -61 -3 -120 -4 -120 23
31 c105 142 191 406 180 556 l-3 45 -13 -55z"/>
<path d="M1362 1508 c-55 -111 -98 -227 -116 -314 -7 -31 -5 -33 77 -83 263
-158 581 -195 877 -99 85 27 147 59 246 124 l82 54 21 80 c12 44 25 119 28
166 l6 86 -51 -26 c-74 -37 -205 -73 -315 -85 -238 -27 -541 50 -730 185 -26
19 -51 34 -55 34 -5 0 -36 -55 -70 -122z"/>
<path d="M1010 850 l0 -342 23 14 c12 8 147 86 299 173 l277 159 -81 23 c-159
46 -326 141 -457 259 l-61 56 0 -342z"/>
<path d="M3025 1128 c-86 -30 -135 -101 -135 -196 0 -85 31 -138 99 -174 147
-77 302 17 301 183 -1 135 -138 231 -265 187z m169 -52 c49 -37 66 -74 66
-144 0 -104 -67 -172 -170 -172 -65 0 -110 24 -146 77 -59 88 -24 217 71 259
49 23 136 13 179 -20z"/>
<path d="M3010 940 c0 -102 1 -110 19 -110 16 0 20 8 23 43 4 56 30 57 61 2
15 -26 31 -41 46 -43 l23 -4 -25 43 -26 43 25 22 c31 29 31 58 -1 89 -20 21
-34 25 -85 25 l-60 0 0 -110z m126 48 c8 -27 -20 -50 -56 -46 -20 2 -26 9 -28
36 -3 31 -2 32 37 32 32 0 41 -4 47 -22z"/>
</g>
</svg>
